<svg width="1280" height="720" viewBox="0 0 1280 720" fill="none" xmlns="http://www.w3.org/2000/svg">
<path d="M279.536 484.25V491.866H280.736V485.434H291.184V491.786H292.432V484.25H279.536ZM280.176 489.69V490.858H291.904V489.69H280.176ZM285.328 481.386V496.09H286.576V481.386H285.328ZM294.96 483.002V484.138H309.056V483.002H294.96ZM298.256 489.418V490.394H305.824V489.418H298.256ZM297.92 492.026V493.034H306.112V492.026H297.92ZM301.36 489.882V495.802H302.512V489.882H301.36ZM295.824 485.818V496.09H297.024V486.938H307.392V485.818H295.824ZM306.976 485.818V494.714C306.976 494.97 306.912 495.05 306.624 495.066C306.336 495.082 305.344 495.082 304.336 495.034C304.512 495.338 304.704 495.802 304.768 496.122C306.08 496.122 306.992 496.106 307.504 495.93C308.032 495.754 308.208 495.418 308.208 494.714V485.818H306.976ZM299.056 487.466C299.456 488.058 299.872 488.874 300.032 489.418L301.04 489.05C300.864 488.522 300.448 487.738 300.016 487.162L299.056 487.466ZM303.952 487.146C303.68 487.834 303.184 488.842 302.784 489.498L303.648 489.786C304.064 489.178 304.56 488.282 304.976 487.45L303.952 487.146ZM301.328 481.402V486.57H302.656V481.402H301.328ZM311.552 483.626V484.714H324.432V483.626H311.552ZM312.352 486.01V487.05H323.728V486.01H312.352ZM310.912 488.41V489.498H325.072V488.41H310.912ZM310.8 490.97V492.042H325.232V490.97H310.8ZM317.344 484.234V489.194H318.576V484.234H317.344ZM313.6 481.802C314.176 482.41 314.72 483.29 314.928 483.898L316.048 483.386C315.792 482.794 315.232 481.962 314.64 481.37L313.6 481.802ZM321.12 481.37C320.784 481.978 320.192 482.874 319.712 483.418L320.768 483.786C321.232 483.258 321.84 482.49 322.352 481.754L321.12 481.37ZM317.28 489.29C316.928 492.49 316 494.266 310.592 495.05C310.816 495.306 311.104 495.802 311.2 496.106C316.944 495.178 318.112 493.034 318.544 489.29H317.28ZM318.896 491.29L317.792 491.514C318.864 494.314 321.04 495.658 324.736 496.138C324.88 495.802 325.2 495.29 325.472 495.034C321.968 494.698 319.808 493.594 318.896 491.29ZM335.984 481.978V495.754H337.12V481.978H335.984ZM339.472 481.738V496.106H340.624V481.738H339.472ZM332.592 481.754V487.338C332.592 490.234 332.384 493.114 330.4 495.402C330.704 495.562 331.168 495.898 331.392 496.106C333.488 493.626 333.728 490.49 333.728 487.338V481.754H332.592ZM331.312 485.93C331.104 487.242 330.672 488.826 330.016 489.786L330.928 490.282C331.616 489.242 332 487.562 332.224 486.218L331.312 485.93ZM333.776 486.49C334.256 487.594 334.688 489.034 334.816 489.978L335.76 489.642C335.616 488.698 335.168 487.258 334.672 486.17L333.776 486.49ZM337.008 486.266C337.696 487.418 338.384 488.97 338.64 489.994L339.584 489.562C339.312 488.554 338.608 487.034 337.888 485.882L337.008 486.266ZM327.296 482.426C328.192 482.922 329.328 483.674 329.872 484.202L330.624 483.226C330.032 482.73 328.88 482.026 328 481.562L327.296 482.426ZM326.592 486.73C327.52 487.194 328.704 487.898 329.312 488.362L330.016 487.402C329.392 486.954 328.176 486.282 327.28 485.866L326.592 486.73ZM326.928 495.274L328 495.914C328.704 494.426 329.504 492.458 330.112 490.794L329.152 490.154C328.496 491.946 327.584 494.042 326.928 495.274ZM279.584 501.554V502.434H285.408V501.554H279.584ZM286.24 502.674V503.746H291.184V502.674H286.24ZM278.976 503.634V504.546H285.936V503.634H278.976ZM281.936 500.466V504.066H283.024V500.466H281.936ZM281.936 506.434V510.434H283.024V506.434H281.936ZM279.376 507.586V508.514H285.52V507.586H279.376ZM278.816 510.242L278.928 511.266C280.768 511.09 283.392 510.802 285.92 510.53V509.586C283.296 509.858 280.592 510.114 278.816 510.242ZM283.072 504.146V505.586C283.072 506.466 283.28 506.674 284.144 506.674C284.304 506.674 284.96 506.674 285.12 506.674C285.744 506.674 286.016 506.402 286.096 505.378C285.84 505.314 285.472 505.218 285.296 505.058C285.248 505.778 285.216 505.858 284.976 505.858C284.848 505.858 284.368 505.858 284.272 505.858C284.032 505.858 284 505.826 284 505.586V504.146H283.072ZM288.08 500.386C288.032 505.33 287.936 508.77 285.392 510.69C285.664 510.85 286 511.218 286.176 511.474C288.928 509.362 289.104 505.65 289.168 500.386H288.08ZM286.112 505.954C287.424 506.77 289.088 508.002 289.872 508.85L290.432 507.858C289.632 507.042 287.952 505.874 286.64 505.09L286.112 505.954ZM290.624 502.674V509.33C290.624 510.434 290.688 510.69 290.896 510.898C291.12 511.106 291.44 511.186 291.712 511.186C291.872 511.186 292.16 511.186 292.336 511.186C292.608 511.186 292.864 511.122 293.04 510.994C293.232 510.866 293.36 510.642 293.424 510.274C293.488 509.938 293.552 508.93 293.568 508.098C293.28 508.018 292.944 507.858 292.736 507.65C292.736 508.578 292.72 509.266 292.688 509.602C292.656 509.89 292.624 510.05 292.56 510.114C292.512 510.194 292.416 510.21 292.304 510.21C292.208 510.21 292.064 510.21 291.984 510.21C291.904 510.21 291.84 510.194 291.792 510.146C291.728 510.066 291.728 509.81 291.728 509.41V502.674H290.624ZM283.472 512.258C283.648 513.138 283.76 514.274 283.76 514.978L284.96 514.818C284.944 514.146 284.784 513.042 284.576 512.162L283.472 512.258ZM286.752 512.226C287.136 513.106 287.504 514.242 287.632 514.962L288.816 514.706C288.672 514.018 288.272 512.882 287.872 512.034L286.752 512.226ZM290.064 512.178C290.816 513.09 291.68 514.338 292.064 515.138L293.248 514.706C292.848 513.906 291.952 512.69 291.2 511.81L290.064 512.178ZM280.752 511.858C280.32 512.914 279.568 514.018 278.784 514.658L279.888 515.122C280.704 514.418 281.44 513.234 281.888 512.162L280.752 511.858ZM280.88 504.258C280.752 505.426 280.272 506.05 278.688 506.418C278.88 506.578 279.136 506.93 279.232 507.154C281.088 506.674 281.68 505.794 281.856 504.258H280.88ZM295.248 506.69V509.778H296.368V507.698H307.68V509.778H308.864V506.69H295.248ZM299.888 500.658V505.858H304.144V500.658H303.024V504.93H300.96V500.658H299.888ZM294.928 502.322V503.298H309.088V502.322H294.928ZM305.536 500.61V504.722C305.536 505.778 305.776 506.066 306.8 506.066C307.008 506.066 307.808 506.066 308.016 506.066C308.816 506.066 309.104 505.65 309.2 504.13C308.896 504.066 308.48 503.906 308.256 503.746C308.224 504.946 308.16 505.122 307.872 505.122C307.712 505.122 307.104 505.122 306.96 505.122C306.672 505.122 306.624 505.074 306.624 504.722V500.61H305.536ZM297.472 500.61V502.69C297.472 503.682 297.216 504.978 295.04 505.698C295.264 505.89 295.568 506.242 295.712 506.482C298.144 505.538 298.576 503.986 298.576 502.69V500.61H297.472ZM301.344 507.522V515.09H302.528V507.522H301.344ZM296.832 509.33V514.178H298V510.322H306.592V509.33H296.832ZM306.144 509.33V512.898C306.144 513.074 306.08 513.138 305.84 513.138C305.616 513.154 304.768 513.154 303.856 513.122C304.016 513.426 304.192 513.858 304.24 514.178C305.456 514.178 306.224 514.178 306.72 514.002C307.2 513.826 307.312 513.49 307.312 512.914V509.33H306.144ZM320.16 500.386V511.538H321.296V500.386H320.16ZM315.12 506.994L315.584 508.05L324.192 504.386L323.744 503.362L315.12 506.994ZM316.848 501.89V512.578C316.848 514.322 317.392 514.754 319.232 514.754C319.632 514.754 322.736 514.754 323.168 514.754C324.848 514.754 325.232 514.05 325.424 511.842C325.088 511.778 324.624 511.586 324.336 511.394C324.224 513.234 324.064 513.666 323.12 513.666C322.48 513.666 319.792 513.666 319.264 513.666C318.192 513.666 318 513.474 318 512.594V501.89H316.848ZM323.536 503.522C323.536 506.706 323.52 508.978 323.424 509.394C323.344 509.762 323.184 509.826 322.944 509.826C322.768 509.826 322.24 509.826 321.872 509.81C322.016 510.082 322.112 510.53 322.16 510.85C322.592 510.85 323.232 510.85 323.664 510.738C324.128 510.626 324.432 510.322 324.528 509.682C324.64 509.058 324.688 506.658 324.688 503.65L324.736 503.426L323.888 503.106L323.68 503.282L323.392 503.522H323.536ZM310.656 504.242V505.378H315.744V504.242H310.656ZM312.72 500.578V510.962H313.856V500.578H312.72ZM310.512 511.378L310.992 512.562C312.416 511.954 314.224 511.138 315.936 510.322L315.68 509.25C313.776 510.066 311.808 510.898 310.512 511.378ZM332.912 504.114H336.592V505.954H332.912V504.114ZM331.792 503.25V506.818H337.776V503.25H331.792ZM331.056 508.786H333.184V511.154H331.056V508.786ZM330.032 507.906V512.034H334.24V507.906H330.032ZM336.352 508.786H338.592V511.154H336.352V508.786ZM335.328 507.906V512.034H339.648V507.906H335.328ZM327.488 501.09V515.122H328.656V502.162H340.864V501.09H327.488ZM328.256 513.234V514.338H341.28V513.234H328.256Z" fill="#404040"/>
<path d="M188.96 381.002V382.138H203.056V381.002H188.96ZM192.256 387.418V388.394H199.824V387.418H192.256ZM191.92 390.026V391.034H200.112V390.026H191.92ZM195.36 387.882V393.802H196.512V387.882H195.36ZM189.824 383.818V394.09H191.024V384.938H201.392V383.818H189.824ZM200.976 383.818V392.714C200.976 392.97 200.912 393.05 200.624 393.066C200.336 393.082 199.344 393.082 198.336 393.034C198.512 393.338 198.704 393.802 198.768 394.122C200.08 394.122 200.992 394.106 201.504 393.93C202.032 393.754 202.208 393.418 202.208 392.714V383.818H200.976ZM193.056 385.466C193.456 386.058 193.872 386.874 194.032 387.418L195.04 387.05C194.864 386.522 194.448 385.738 194.016 385.162L193.056 385.466ZM197.952 385.146C197.68 385.834 197.184 386.842 196.784 387.498L197.648 387.786C198.064 387.178 198.56 386.282 198.976 385.45L197.952 385.146ZM195.328 379.402V384.57H196.656V379.402H195.328ZM205.552 381.626V382.714H218.432V381.626H205.552ZM206.352 384.01V385.05H217.728V384.01H206.352ZM204.912 386.41V387.498H219.072V386.41H204.912ZM204.8 388.97V390.042H219.232V388.97H204.8ZM211.344 382.234V387.194H212.576V382.234H211.344ZM207.6 379.802C208.176 380.41 208.72 381.29 208.928 381.898L210.048 381.386C209.792 380.794 209.232 379.962 208.64 379.37L207.6 379.802ZM215.12 379.37C214.784 379.978 214.192 380.874 213.712 381.418L214.768 381.786C215.232 381.258 215.84 380.49 216.352 379.754L215.12 379.37ZM211.28 387.29C210.928 390.49 210 392.266 204.592 393.05C204.816 393.306 205.104 393.802 205.2 394.106C210.944 393.178 212.112 391.034 212.544 387.29H211.28ZM212.896 389.29L211.792 389.514C212.864 392.314 215.04 393.658 218.736 394.138C218.88 393.802 219.2 393.29 219.472 393.034C215.968 392.698 213.808 391.594 212.896 389.29ZM229.984 379.978V393.754H231.12V379.978H229.984ZM233.472 379.738V394.106H234.624V379.738H233.472ZM226.592 379.754V385.338C226.592 388.234 226.384 391.114 224.4 393.402C224.704 393.562 225.168 393.898 225.392 394.106C227.488 391.626 227.728 388.49 227.728 385.338V379.754H226.592ZM225.312 383.93C225.104 385.242 224.672 386.826 224.016 387.786L224.928 388.282C225.616 387.242 226 385.562 226.224 384.218L225.312 383.93ZM227.776 384.49C228.256 385.594 228.688 387.034 228.816 387.978L229.76 387.642C229.616 386.698 229.168 385.258 228.672 384.17L227.776 384.49ZM231.008 384.266C231.696 385.418 232.384 386.97 232.64 387.994L233.584 387.562C233.312 386.554 232.608 385.034 231.888 383.882L231.008 384.266ZM221.296 380.426C222.192 380.922 223.328 381.674 223.872 382.202L224.624 381.226C224.032 380.73 222.88 380.026 222 379.562L221.296 380.426ZM220.592 384.73C221.52 385.194 222.704 385.898 223.312 386.362L224.016 385.402C223.392 384.954 222.176 384.282 221.28 383.866L220.592 384.73ZM220.928 393.274L222 393.914C222.704 392.426 223.504 390.458 224.112 388.794L223.152 388.154C222.496 389.946 221.584 392.042 220.928 393.274ZM236.928 380.634V381.69H251.12V380.634H236.928ZM244.048 386.282V387.338H251.184V386.282H244.048ZM240.688 379.402V382.746H241.872V379.402H240.688ZM246.048 379.402V382.746H247.248V379.402H246.048ZM239.088 383.354V384.218H241.984V383.354H239.088ZM247.008 383.77V394.138H248.144V383.77H247.008ZM240.192 385.546V389.898H241.088V385.546H240.192ZM238.72 388.218H242.656V389.498H238.72V388.218ZM238.72 386.154H242.656V387.434H238.72V386.154ZM237.728 385.29V390.362H243.68V385.29H237.728ZM241.6 383.354V383.546C241.328 384.138 240.8 384.97 240.336 385.45C240.512 385.594 240.784 385.882 240.928 386.074C241.52 385.482 242.208 384.586 242.672 383.77L242.016 383.29L241.824 383.354H241.6ZM237.808 390.89C237.632 391.962 237.232 393.018 236.48 393.626L237.296 394.138C238.112 393.466 238.48 392.314 238.688 391.162L237.808 390.89ZM239.232 391.13C239.408 391.962 239.536 393.034 239.504 393.738L240.384 393.61C240.384 392.922 240.256 391.85 240.064 391.034L239.232 391.13ZM240.736 391.098C241.056 391.882 241.36 392.922 241.44 393.594L242.304 393.386C242.192 392.73 241.888 391.706 241.552 390.938L240.736 391.098ZM242.288 391.002C242.752 391.754 243.232 392.746 243.424 393.402L244.24 393.114C244.048 392.458 243.552 391.498 243.072 390.762L242.288 391.002ZM249.744 382.554C248.464 383.13 246.128 383.658 244.112 384.01C244.24 384.234 244.4 384.618 244.448 384.858C246.56 384.538 249.008 384.026 250.64 383.354L249.744 382.554ZM248.256 386.73L247.488 387.002C248.224 389.002 249.536 391.29 250.704 392.49C250.912 392.218 251.248 391.85 251.52 391.658C250.32 390.65 248.96 388.554 248.256 386.73ZM246.896 386.698C246.256 388.65 244.992 390.698 243.696 391.706C243.952 391.898 244.304 392.298 244.496 392.57C245.792 391.37 247.056 389.146 247.728 386.954L246.896 386.698ZM239.328 382.33C238.816 383.466 237.888 384.874 236.544 385.93C236.8 386.074 237.136 386.41 237.312 386.65C238.784 385.418 239.76 383.914 240.416 382.506L239.328 382.33ZM252.784 384.218V385.338H260.4V384.218H252.784ZM261.472 381.29V390.138H262.64V381.29H261.472ZM256.144 380.746V394.09H257.328V380.746H256.144ZM265.408 379.69V392.522C265.408 392.826 265.28 392.922 264.976 392.922C264.672 392.938 263.68 392.938 262.528 392.906C262.72 393.258 262.912 393.786 262.976 394.122C264.448 394.138 265.344 394.106 265.872 393.898C266.384 393.706 266.592 393.338 266.592 392.506V379.69H265.408ZM259.328 379.482C257.824 380.154 255.04 380.698 252.672 381.034C252.816 381.29 252.992 381.706 253.04 381.994C255.472 381.674 258.368 381.146 260.224 380.41L259.328 379.482ZM256.096 384.73C255.392 386.874 253.84 389.418 252.432 390.762C252.64 391.066 252.944 391.546 253.088 391.898C254.576 390.378 256.144 387.514 256.96 385.082L256.096 384.73ZM257.168 386.378L256.512 387.018C257.248 387.642 258.992 389.322 259.648 390.058L260.352 389.05C259.84 388.602 257.776 386.81 257.168 386.378ZM268.96 381.002V382.138H283.056V381.002H268.96ZM272.256 387.418V388.394H279.824V387.418H272.256ZM271.92 390.026V391.034H280.112V390.026H271.92ZM275.36 387.882V393.802H276.512V387.882H275.36ZM269.824 383.818V394.09H271.024V384.938H281.392V383.818H269.824ZM280.976 383.818V392.714C280.976 392.97 280.912 393.05 280.624 393.066C280.336 393.082 279.344 393.082 278.336 393.034C278.512 393.338 278.704 393.802 278.768 394.122C280.08 394.122 280.992 394.106 281.504 393.93C282.032 393.754 282.208 393.418 282.208 392.714V383.818H280.976ZM273.056 385.466C273.456 386.058 273.872 386.874 274.032 387.418L275.04 387.05C274.864 386.522 274.448 385.738 274.016 385.162L273.056 385.466ZM277.952 385.146C277.68 385.834 277.184 386.842 276.784 387.498L277.648 387.786C278.064 387.178 278.56 386.282 278.976 385.45L277.952 385.146ZM275.328 379.402V384.57H276.656V379.402H275.328ZM190.704 404.946V406.114H201.088V404.946H190.704ZM195.28 399.938V405.554H196.48V399.938H195.28ZM190.72 399.314V400.498H200.48V406.946H201.728V399.314H190.72ZM190.032 399.314V410.05C190.032 412.258 190.848 412.802 193.472 412.802C194.096 412.802 199.136 412.802 199.824 412.802C202.32 412.802 202.864 411.938 203.168 409.378C202.8 409.298 202.272 409.09 201.936 408.882C201.712 411.09 201.424 411.602 199.792 411.602C198.736 411.602 194.256 411.602 193.392 411.602C191.6 411.602 191.28 411.314 191.28 410.082V399.314H190.032ZM206.416 410.93V412.05H217.744V410.93H206.416ZM205.632 402.914V413.042H206.8V404.034H217.216V412.994H218.432V402.914H205.632ZM212.992 403.426V406.818C212.992 407.97 213.28 408.29 214.464 408.29C214.704 408.29 215.792 408.29 216.048 408.29C216.944 408.29 217.264 407.922 217.392 406.434C217.072 406.354 216.592 406.178 216.368 406.002C216.336 407.074 216.256 407.218 215.904 407.218C215.68 407.218 214.8 407.218 214.624 407.218C214.224 407.218 214.16 407.17 214.16 406.818V403.426H212.992ZM204.944 399.442V400.61H219.008V399.442H204.944ZM209.472 400.226V403.554H210.64V400.226H209.472ZM213.008 400.226V403.554H214.208V400.226H213.008ZM209.52 403.234V404.77C209.52 405.986 209.12 407.394 206.928 408.45C207.168 408.61 207.616 409.01 207.776 409.25C210.112 408.082 210.64 406.306 210.64 404.802V403.234H209.52ZM228.928 409.922V411.074H233.888V409.922H228.928ZM228.48 399.89V412.402H229.648V401.026H233.232V412.29H234.448V399.89H228.48ZM223.936 399.746V413.09H225.136V399.746H223.936ZM220.8 403.122V404.242H227.936V403.122H220.8ZM223.872 403.522C223.232 405.73 221.76 408.322 220.416 409.698C220.624 409.986 220.928 410.466 221.056 410.802C222.496 409.266 223.968 406.306 224.72 403.826L223.872 403.522ZM227.008 398.546C225.616 399.122 223.072 399.602 220.944 399.89C221.088 400.162 221.232 400.562 221.296 400.834C223.488 400.578 226.112 400.114 227.824 399.474L227.008 398.546ZM225.04 404.562L224.432 405.154C225.024 405.858 226.576 407.906 227.088 408.754L227.824 407.778C227.408 407.25 225.552 405.074 225.04 404.562ZM236.944 399.57V400.578H251.088V399.57H236.944ZM236.944 404.194V405.122H251.104V404.194H236.944ZM238.352 402.13V403.026H249.696V402.13H238.352ZM236.8 411.554V412.53H251.2V411.554H236.8ZM240.624 398.402V401.666H241.808V398.402H240.624ZM243.344 401.09V404.61H244.528V401.09H243.344ZM246.112 398.402V401.666H247.296V398.402H246.112ZM238.72 408.466V412.05H239.856V409.378H241.936V412.05H242.944V409.378H245.04V412.05H246.048V409.378H248.176V412.05H249.344V408.466H238.72ZM237.2 406.706L237.296 407.73C240.304 407.698 244.88 407.602 249.168 407.49L249.216 406.594C244.8 406.674 240.08 406.706 237.2 406.706ZM241.584 404.482C241.136 405.218 240.304 406.242 239.68 406.882L240.64 407.282C241.296 406.674 242.112 405.762 242.784 404.914L241.584 404.482ZM245.824 405.618C247.328 406.37 249.168 407.586 250.096 408.434L250.976 407.682C250.032 406.866 248.208 405.682 246.688 404.962L245.824 405.618ZM253.248 399.41V400.53H266.8V399.41H253.248ZM252.816 411.298V412.402H267.184V411.298H252.816ZM254.672 407.298V408.37H257.584V411.89H258.736V407.298H254.672ZM253.968 402.994V409.01H255.136V404.034H258.736V402.994H253.968ZM258.736 399.922H257.584V403.506H258.736V399.922ZM261.136 399.938V403.522H262.288V399.938H261.136ZM261.136 402.962V404.018H264.8V408.898H266V402.962H261.136ZM261.136 407.298V411.922H262.288V408.37H265.424V407.298H261.136ZM268.848 399.202V400.306H275.392V399.202H268.848ZM269.056 402.978V404.066H275.52V402.978H269.056ZM268.928 406.706V407.778H275.424V406.706H268.928ZM274.816 399.202V399.538C274.784 408.002 274.72 410.834 274.368 411.378C274.24 411.618 274.096 411.682 273.856 411.666C273.552 411.666 272.896 411.666 272.176 411.602C272.368 411.97 272.512 412.514 272.528 412.882C273.232 412.914 273.968 412.93 274.432 412.866C274.896 412.802 275.2 412.642 275.504 412.162C275.968 411.41 275.968 408.642 276.016 399.874C276.016 399.698 276.016 399.202 276.016 399.202H274.816ZM271.376 399.666C271.376 405.314 271.12 409.666 268.672 412.226C268.944 412.418 269.472 412.898 269.632 413.106C272.176 410.162 272.512 405.778 272.592 399.666H271.376ZM277.376 399.25V413.09H278.512V400.386H282.352V399.25H277.376ZM281.92 399.25V399.602C281.392 400.882 280.48 403.026 279.6 404.674C281.312 406.082 281.856 407.266 281.856 408.258C281.856 408.834 281.728 409.298 281.344 409.506C281.12 409.618 280.832 409.666 280.544 409.682C280.144 409.714 279.6 409.698 279.008 409.634C279.216 409.97 279.344 410.466 279.376 410.786C279.92 410.818 280.56 410.818 281.04 410.77C281.456 410.722 281.856 410.61 282.144 410.434C282.752 410.066 282.992 409.314 282.976 408.354C282.976 407.25 282.528 406.002 280.832 404.514C281.632 403.026 282.512 401.218 283.184 399.746L282.352 399.202L282.16 399.25H281.92Z" fill="#404040"/>
<path d="M90.552 207.626V208.714H103.432V207.626H90.552ZM91.352 210.01V211.05H102.728V210.01H91.352ZM89.912 212.41V213.498H104.072V212.41H89.912ZM89.8 214.97V216.042H104.232V214.97H89.8ZM96.344 208.234V213.194H97.576V208.234H96.344ZM92.6 205.802C93.176 206.41 93.72 207.29 93.928 207.898L95.048 207.386C94.792 206.794 94.232 205.962 93.64 205.37L92.6 205.802ZM100.12 205.37C99.784 205.978 99.192 206.874 98.712 207.418L99.768 207.786C100.232 207.258 100.84 206.49 101.352 205.754L100.12 205.37ZM96.28 213.29C95.928 216.49 95 218.266 89.592 219.05C89.816 219.306 90.104 219.802 90.2 220.106C95.944 219.178 97.112 217.034 97.544 213.29H96.28ZM97.896 215.29L96.792 215.514C97.864 218.314 100.04 219.658 103.736 220.138C103.88 219.802 104.2 219.29 104.472 219.034C100.968 218.698 98.808 217.594 97.896 215.29ZM108.328 209.338V210.25H117.704V209.338H108.328ZM115 208.026C115.608 208.33 116.344 208.794 116.728 209.178L117.304 208.538C116.92 208.17 116.184 207.722 115.56 207.45L115 208.026ZM116.056 210.986C115.368 213.754 113.896 215.834 111.72 217.098C111.928 217.274 112.28 217.674 112.424 217.866C114.632 216.442 116.232 214.202 117.032 211.178L116.056 210.986ZM108.168 215.882L108.328 216.794C109.656 216.554 111.368 216.202 113.032 215.882L113 215.034C111.192 215.37 109.4 215.674 108.168 215.882ZM109.752 212.01H111.576V213.626H109.752V212.01ZM108.888 211.258V214.362H112.456V211.258H108.888ZM113.064 207.626C113.352 212.57 114.008 217.114 116.216 217.594C117.064 217.898 117.624 217.258 117.832 215.498C117.608 215.402 117.24 215.146 117.048 214.954C116.936 215.994 116.776 216.666 116.552 216.618C115 216.378 114.296 212.154 114.088 207.626H113.064ZM106.312 206.138V220.17H107.448V207.226H118.488V220.17H119.688V206.138H106.312ZM107.016 218.33V219.418H119.16V218.33H107.016ZM122.536 208.25V215.866H123.736V209.434H134.184V215.786H135.432V208.25H122.536ZM123.176 213.69V214.858H134.904V213.69H123.176ZM128.328 205.386V220.09H129.576V205.386H128.328ZM146.6 206.346V220.122H147.768V207.482H151.4V206.346H146.6ZM138.072 207.162V208.234H145.72V207.162H138.072ZM137.656 211.594V212.698H145.928V211.594H137.656ZM141.288 205.45V207.818H142.456V205.45H141.288ZM139.064 208.794C139.4 209.61 139.672 210.698 139.752 211.402L140.824 211.146C140.728 210.442 140.424 209.37 140.072 208.57L139.064 208.794ZM143.656 208.458C143.464 209.274 143.08 210.458 142.76 211.194L143.72 211.45C144.072 210.746 144.456 209.674 144.808 208.73L143.656 208.458ZM139.16 218.122V219.194H144.424V218.122H139.16ZM138.728 214.09V220.122H139.848V215.162H143.88V220.042H145.032V214.09H138.728ZM151.08 206.346V206.73C150.6 207.994 149.736 210.202 148.92 211.85C150.536 213.258 151 214.458 151.016 215.466C151.016 216.058 150.904 216.522 150.552 216.73C150.36 216.842 150.136 216.906 149.864 216.922C149.544 216.938 149.08 216.922 148.616 216.89C148.824 217.226 148.936 217.738 148.952 218.074C149.416 218.09 149.944 218.106 150.344 218.058C150.76 217.994 151.112 217.882 151.4 217.706C151.96 217.322 152.184 216.57 152.184 215.594C152.168 214.442 151.784 213.178 150.168 211.69C150.904 210.218 151.736 208.362 152.392 206.858L151.512 206.298L151.32 206.346H151.08ZM105.96 226.002V227.138H120.056V226.002H105.96ZM109.256 232.418V233.394H116.824V232.418H109.256ZM108.92 235.026V236.034H117.112V235.026H108.92ZM112.36 232.882V238.802H113.512V232.882H112.36ZM106.824 228.818V239.09H108.024V229.938H118.392V228.818H106.824ZM117.976 228.818V237.714C117.976 237.97 117.912 238.05 117.624 238.066C117.336 238.082 116.344 238.082 115.336 238.034C115.512 238.338 115.704 238.802 115.768 239.122C117.08 239.122 117.992 239.106 118.504 238.93C119.032 238.754 119.208 238.418 119.208 237.714V228.818H117.976ZM110.056 230.466C110.456 231.058 110.872 231.874 111.032 232.418L112.04 232.05C111.864 231.522 111.448 230.738 111.016 230.162L110.056 230.466ZM114.952 230.146C114.68 230.834 114.184 231.842 113.784 232.498L114.648 232.786C115.064 232.178 115.56 231.282 115.976 230.45L114.952 230.146ZM112.328 224.402V229.57H113.656V224.402H112.328ZM130.6 225.346V239.122H131.768V226.482H135.4V225.346H130.6ZM122.072 226.162V227.234H129.72V226.162H122.072ZM121.656 230.594V231.698H129.928V230.594H121.656ZM125.288 224.45V226.818H126.456V224.45H125.288ZM123.064 227.794C123.4 228.61 123.672 229.698 123.752 230.402L124.824 230.146C124.728 229.442 124.424 228.37 124.072 227.57L123.064 227.794ZM127.656 227.458C127.464 228.274 127.08 229.458 126.76 230.194L127.72 230.45C128.072 229.746 128.456 228.674 128.808 227.73L127.656 227.458ZM123.16 237.122V238.194H128.424V237.122H123.16ZM122.728 233.09V239.122H123.848V234.162H127.88V239.042H129.032V233.09H122.728ZM135.08 225.346V225.73C134.6 226.994 133.736 229.202 132.92 230.85C134.536 232.258 135 233.458 135.016 234.466C135.016 235.058 134.904 235.522 134.552 235.73C134.36 235.842 134.136 235.906 133.864 235.922C133.544 235.938 133.08 235.922 132.616 235.89C132.824 236.226 132.936 236.738 132.952 237.074C133.416 237.09 133.944 237.106 134.344 237.058C134.76 236.994 135.112 236.882 135.4 236.706C135.96 236.322 136.184 235.57 136.184 234.594C136.168 233.442 135.784 232.178 134.168 230.69C134.904 229.218 135.736 227.362 136.392 225.858L135.512 225.298L135.32 225.346H135.08Z" fill="#404040"/>
<path d="M169.024 167.45V168.65H173.728V167.45H169.024ZM177.04 163.69V175.546C177.04 177.274 177.488 177.754 178.976 177.754C179.296 177.754 181.216 177.754 181.552 177.754C183.12 177.754 183.44 176.714 183.584 173.786C183.248 173.706 182.736 173.466 182.432 173.226C182.32 175.882 182.208 176.57 181.472 176.57C181.056 176.57 179.456 176.57 179.104 176.57C178.416 176.57 178.272 176.41 178.272 175.578V163.69H177.04ZM173.136 163.69V177.978H174.368V163.69H173.136ZM182.256 166.154C181.056 167.258 179.072 168.618 177.296 169.594C177.472 169.85 177.712 170.266 177.808 170.538C179.616 169.546 181.664 168.33 183.136 167.194L182.256 166.154ZM168.528 174.874L169.088 176.074C170.464 175.498 172.272 174.746 173.952 174.01L173.728 172.922C171.824 173.674 169.824 174.442 168.528 174.874ZM185.552 165.626V166.714H198.432V165.626H185.552ZM186.352 168.01V169.05H197.728V168.01H186.352ZM184.912 170.41V171.498H199.072V170.41H184.912ZM184.8 172.97V174.042H199.232V172.97H184.8ZM191.344 166.234V171.194H192.576V166.234H191.344ZM187.6 163.802C188.176 164.41 188.72 165.29 188.928 165.898L190.048 165.386C189.792 164.794 189.232 163.962 188.64 163.37L187.6 163.802ZM195.12 163.37C194.784 163.978 194.192 164.874 193.712 165.418L194.768 165.786C195.232 165.258 195.84 164.49 196.352 163.754L195.12 163.37ZM191.28 171.29C190.928 174.49 190 176.266 184.592 177.05C184.816 177.306 185.104 177.802 185.2 178.106C190.944 177.178 192.112 175.034 192.544 171.29H191.28ZM192.896 173.29L191.792 173.514C192.864 176.314 195.04 177.658 198.736 178.138C198.88 177.802 199.2 177.29 199.472 177.034C195.968 176.698 193.808 175.594 192.896 173.29ZM209.984 163.978V177.754H211.12V163.978H209.984ZM213.472 163.738V178.106H214.624V163.738H213.472ZM206.592 163.754V169.338C206.592 172.234 206.384 175.114 204.4 177.402C204.704 177.562 205.168 177.898 205.392 178.106C207.488 175.626 207.728 172.49 207.728 169.338V163.754H206.592ZM205.312 167.93C205.104 169.242 204.672 170.826 204.016 171.786L204.928 172.282C205.616 171.242 206 169.562 206.224 168.218L205.312 167.93ZM207.776 168.49C208.256 169.594 208.688 171.034 208.816 171.978L209.76 171.642C209.616 170.698 209.168 169.258 208.672 168.17L207.776 168.49ZM211.008 168.266C211.696 169.418 212.384 170.97 212.64 171.994L213.584 171.562C213.312 170.554 212.608 169.034 211.888 167.882L211.008 168.266ZM201.296 164.426C202.192 164.922 203.328 165.674 203.872 166.202L204.624 165.226C204.032 164.73 202.88 164.026 202 163.562L201.296 164.426ZM200.592 168.73C201.52 169.194 202.704 169.898 203.312 170.362L204.016 169.402C203.392 168.954 202.176 168.282 201.28 167.866L200.592 168.73ZM200.928 177.274L202 177.914C202.704 176.426 203.504 174.458 204.112 172.794L203.152 172.154C202.496 173.946 201.584 176.042 200.928 177.274Z" fill="#404040"/>
<path d="M573.84 144.402V145.458H580.72V144.402H573.84ZM573.296 133.186V146.626H574.352V134.226H580.496V133.186H573.296ZM576.576 136.002H578.656V137.906H576.576V136.002ZM575.648 135.202V138.706H579.632V135.202H575.648ZM575.616 140.322H576.592V142.53H575.616V140.322ZM574.944 139.522V143.33H577.296V139.522H574.944ZM578.592 140.322H579.632V142.53H578.592V140.322ZM577.904 139.522V143.33H580.368V139.522H577.904ZM581.728 135.282V136.386H586.48V135.282H581.728ZM583.664 135.746H583.088V138.594C583.104 139.874 582.688 143.986 579.616 146.146C579.808 146.37 580.16 146.85 580.288 147.106C582.688 145.394 583.504 142.402 583.664 141.09C583.792 142.37 584.528 145.458 586.704 147.106C586.88 146.818 587.216 146.338 587.44 146.082C584.64 144.002 584.224 139.826 584.24 138.594V135.746H583.664ZM581.872 132.37C581.568 134.882 581.008 137.346 579.984 138.914C580.272 139.074 580.784 139.426 580.992 139.602C582.032 137.89 582.672 135.282 583.056 132.546L581.872 132.37ZM586.112 135.282V135.49C586 136.722 585.776 138.322 585.552 139.282L586.48 139.554C586.784 138.514 587.056 136.834 587.248 135.442L586.464 135.218L586.288 135.282H586.112ZM597.984 132.978V146.754H599.12V132.978H597.984ZM601.472 132.738V147.106H602.624V132.738H601.472ZM594.592 132.754V138.338C594.592 141.234 594.384 144.114 592.4 146.402C592.704 146.562 593.168 146.898 593.392 147.106C595.488 144.626 595.728 141.49 595.728 138.338V132.754H594.592ZM593.312 136.93C593.104 138.242 592.672 139.826 592.016 140.786L592.928 141.282C593.616 140.242 594 138.562 594.224 137.218L593.312 136.93ZM595.776 137.49C596.256 138.594 596.688 140.034 596.816 140.978L597.76 140.642C597.616 139.698 597.168 138.258 596.672 137.17L595.776 137.49ZM599.008 137.266C599.696 138.418 600.384 139.97 600.64 140.994L601.584 140.562C601.312 139.554 600.608 138.034 599.888 136.882L599.008 137.266ZM589.296 133.426C590.192 133.922 591.328 134.674 591.872 135.202L592.624 134.226C592.032 133.73 590.88 133.026 590 132.562L589.296 133.426ZM588.592 137.73C589.52 138.194 590.704 138.898 591.312 139.362L592.016 138.402C591.392 137.954 590.176 137.282 589.28 136.866L588.592 137.73ZM588.928 146.274L590 146.914C590.704 145.426 591.504 143.458 592.112 141.794L591.152 141.154C590.496 142.946 589.584 145.042 588.928 146.274Z" fill="#404040"/>
<path d="M516.856 277.818V278.954H522.04V277.818H516.856ZM516.84 285.082V286.218H522.312V285.082H516.84ZM516.776 281.434V282.522H521.72V281.434H516.776ZM508.216 277.818V278.954H512.936V277.818H508.216ZM508.408 281.434V282.522H512.888V281.434H508.408ZM516.232 275.482V290.106H517.416V275.482H516.232ZM507.624 285.434L507.88 286.602C509.768 286.266 512.392 285.786 514.888 285.322L514.824 284.25C512.184 284.714 509.4 285.162 507.624 285.434ZM512.392 275.482V282.954C512.392 284.618 511.88 287.834 508.216 289.386C508.504 289.626 508.888 290.01 509.08 290.282C512.936 288.474 513.576 285.018 513.576 282.954V275.482H512.392ZM532.984 275.978V289.754H534.12V275.978H532.984ZM536.472 275.738V290.106H537.624V275.738H536.472ZM529.592 275.754V281.338C529.592 284.234 529.384 287.114 527.4 289.402C527.704 289.562 528.168 289.898 528.392 290.106C530.488 287.626 530.728 284.49 530.728 281.338V275.754H529.592ZM528.312 279.93C528.104 281.242 527.672 282.826 527.016 283.786L527.928 284.282C528.616 283.242 529 281.562 529.224 280.218L528.312 279.93ZM530.776 280.49C531.256 281.594 531.688 283.034 531.816 283.978L532.76 283.642C532.616 282.698 532.168 281.258 531.672 280.17L530.776 280.49ZM534.008 280.266C534.696 281.418 535.384 282.97 535.64 283.994L536.584 283.562C536.312 282.554 535.608 281.034 534.888 279.882L534.008 280.266ZM524.296 276.426C525.192 276.922 526.328 277.674 526.872 278.202L527.624 277.226C527.032 276.73 525.88 276.026 525 275.562L524.296 276.426ZM523.592 280.73C524.52 281.194 525.704 281.898 526.312 282.362L527.016 281.402C526.392 280.954 525.176 280.282 524.28 279.866L523.592 280.73ZM523.928 289.274L525 289.914C525.704 288.426 526.504 286.458 527.112 284.794L526.152 284.154C525.496 285.946 524.584 288.042 523.928 289.274ZM544.344 281.882V290.026H545.384V282.826H548.312V281.882H544.344ZM544.936 284.074V284.97H548.264V284.074H544.936ZM544.936 286.202V287.098H548.264V286.202H544.936ZM547.832 281.882V288.906C547.832 289.05 547.816 289.098 547.656 289.114C547.512 289.114 547.128 289.114 546.648 289.098C546.776 289.354 546.92 289.738 546.968 289.994C547.656 289.994 548.12 289.978 548.456 289.834C548.776 289.674 548.856 289.402 548.856 288.922V281.882H547.832ZM543.88 277.226V278.186H549.24V277.226H543.88ZM543.624 280.058V281.034H549.368V280.058H543.624ZM544.952 275.594V280.778H545.944V275.594H544.952ZM547.336 275.594V280.778H548.328V275.594H547.336ZM550.376 275.418C550.088 277.946 549.592 280.41 548.616 282.042C548.84 282.25 549.208 282.698 549.352 282.906C550.44 281.114 551.064 278.378 551.448 275.578L550.376 275.418ZM550.248 278.522L550.04 279.578H554.28V278.522H550.248ZM552.6 279.098C552.2 283.706 551.272 287.242 548.696 289.338C548.92 289.53 549.288 289.946 549.432 290.17C552.12 287.802 553.144 284.17 553.64 279.162L552.6 279.098ZM550.536 279.434L549.72 279.882C550.088 283.386 550.968 287.898 553.832 290.154C553.992 289.882 554.344 289.45 554.552 289.258C551.704 287.21 550.872 282.826 550.536 279.434ZM539.416 283.722L539.736 284.874C540.984 284.458 542.584 283.898 544.088 283.354L543.912 282.266C542.248 282.826 540.568 283.37 539.416 283.722ZM539.64 278.618V279.738H543.912V278.618H539.64ZM541.384 275.402V288.778C541.384 288.986 541.32 289.05 541.112 289.05C540.936 289.066 540.328 289.066 539.656 289.05C539.8 289.37 539.944 289.834 539.992 290.106C540.968 290.122 541.56 290.074 541.928 289.898C542.296 289.722 542.44 289.402 542.44 288.778V275.402H541.384ZM562.872 280.554V281.642H568.152V280.554H562.872ZM562.488 288.25V289.354H568.744V288.25H562.488ZM565.496 276.89C566.456 278.554 568.216 280.474 569.896 281.642C570.072 281.29 570.344 280.826 570.584 280.506C568.92 279.498 567.128 277.562 566.056 275.626H564.84C564.04 277.402 562.344 279.482 560.536 280.65C560.76 280.938 561.064 281.386 561.192 281.706C562.984 280.474 564.648 278.506 565.496 276.89ZM561.928 283.466V290.122H563.096V284.554H568.104V290.074H569.304V283.466H561.928ZM556.872 277.066V278.186H559.592V284.57H556.872V285.69H560.744V277.066H556.872ZM556.168 277.066V287.194H557.288V277.066H556.168ZM580.968 275.578V279.018H582.168V275.578H580.968ZM577.448 278.506V279.626H586.136V278.506H577.448ZM578.472 280.714C579.08 282.986 579.544 285.914 579.608 287.626L580.776 287.322C580.696 285.642 580.168 282.778 579.528 280.506L578.472 280.714ZM583.496 280.378C583.208 282.906 582.552 286.49 581.976 288.602L583.048 288.826C583.656 286.73 584.328 283.29 584.76 280.602L583.496 280.378ZM576.616 288.298V289.434H586.408V288.298H576.616ZM571.496 283.866L571.848 285.018C573.384 284.586 575.4 283.978 577.304 283.418L577.16 282.314C575.096 282.906 572.936 283.514 571.496 283.866ZM571.752 278.618V279.754H577V278.618H571.752ZM574.024 275.402V288.714C574.024 288.954 573.928 289.034 573.704 289.034C573.496 289.034 572.808 289.034 572.056 289.018C572.2 289.338 572.376 289.834 572.424 290.122C573.528 290.122 574.184 290.09 574.616 289.898C575.016 289.722 575.192 289.402 575.192 288.714V275.402H574.024ZM540.568 294.434V302.77C540.568 302.994 540.488 303.042 540.248 303.058C539.992 303.074 539.192 303.074 538.312 303.042C538.472 303.378 538.664 303.89 538.712 304.226C539.88 304.242 540.648 304.21 541.128 304.018C541.592 303.81 541.736 303.458 541.736 302.786V294.434H540.568ZM537.896 296.994C537.416 298.658 536.648 300.386 535.752 301.522C536.04 301.666 536.552 301.97 536.776 302.146C537.656 300.946 538.504 299.074 539.064 297.25L537.896 296.994ZM543.192 297.25C544.12 298.61 545.032 300.45 545.368 301.666L546.472 301.17C546.104 299.954 545.176 298.162 544.216 296.802L543.192 297.25ZM544.152 301.698C543.032 305.266 540.584 307.186 536.2 308.05C536.472 308.338 536.744 308.802 536.872 309.154C541.48 308.098 544.104 305.938 545.288 302.018L544.152 301.698ZM532.472 295.394C533.496 295.874 534.744 296.658 535.368 297.25L536.056 296.274C535.448 295.698 534.168 294.962 533.128 294.53L532.472 295.394ZM531.608 299.73C532.648 300.178 533.928 300.914 534.552 301.474L535.24 300.482C534.584 299.938 533.288 299.234 532.248 298.834L531.608 299.73ZM532.12 308.098L533.144 308.882C534.04 307.41 535.096 305.394 535.896 303.714L535 302.946C534.104 304.77 532.936 306.866 532.12 308.098ZM552.04 295.714V296.738H562.136V295.714H552.04ZM551.752 304.546V305.554H562.216V304.546H551.752ZM554.52 294.402V297.954H555.672V294.402H554.52ZM558.28 294.402V297.954H559.448V294.402H558.28ZM553.944 301.154H560.024V302.306H553.944V301.154ZM553.944 299.154H560.024V300.29H553.944V299.154ZM552.824 298.258V303.218H561.176V298.258H552.824ZM556.296 303.058C555.992 305.778 555.192 307.394 551.192 308.162C551.432 308.402 551.72 308.85 551.832 309.138C556.136 308.194 557.144 306.258 557.48 303.058H556.296ZM557.752 304.882L556.744 305.106C557.592 307.186 559.304 308.53 561.752 309.122C561.896 308.818 562.216 308.354 562.488 308.114C560.184 307.698 558.488 306.578 557.752 304.882ZM548.408 295.554C549.288 296.13 550.376 296.994 550.888 297.554L551.688 296.674C551.144 296.114 550.024 295.298 549.16 294.77L548.408 295.554ZM547.656 299.826C548.568 300.354 549.704 301.122 550.248 301.65L550.984 300.722C550.424 300.194 549.272 299.474 548.376 299.01L547.656 299.826ZM547.992 307.986L549.064 308.69C549.816 307.218 550.696 305.266 551.368 303.602L550.408 302.914C549.688 304.706 548.696 306.77 547.992 307.986Z" fill="#404040"/>
<path d="M623.856 357.818V358.954H629.04V357.818H623.856ZM623.84 365.082V366.218H629.312V365.082H623.84ZM623.776 361.434V362.522H628.72V361.434H623.776ZM615.216 357.818V358.954H619.936V357.818H615.216ZM615.408 361.434V362.522H619.888V361.434H615.408ZM623.232 355.482V370.106H624.416V355.482H623.232ZM614.624 365.434L614.88 366.602C616.768 366.266 619.392 365.786 621.888 365.322L621.824 364.25C619.184 364.714 616.4 365.162 614.624 365.434ZM619.392 355.482V362.954C619.392 364.618 618.88 367.834 615.216 369.386C615.504 369.626 615.888 370.01 616.08 370.282C619.936 368.474 620.576 365.018 620.576 362.954V355.482H619.392ZM639.984 355.978V369.754H641.12V355.978H639.984ZM643.472 355.738V370.106H644.624V355.738H643.472ZM636.592 355.754V361.338C636.592 364.234 636.384 367.114 634.4 369.402C634.704 369.562 635.168 369.898 635.392 370.106C637.488 367.626 637.728 364.49 637.728 361.338V355.754H636.592ZM635.312 359.93C635.104 361.242 634.672 362.826 634.016 363.786L634.928 364.282C635.616 363.242 636 361.562 636.224 360.218L635.312 359.93ZM637.776 360.49C638.256 361.594 638.688 363.034 638.816 363.978L639.76 363.642C639.616 362.698 639.168 361.258 638.672 360.17L637.776 360.49ZM641.008 360.266C641.696 361.418 642.384 362.97 642.64 363.994L643.584 363.562C643.312 362.554 642.608 361.034 641.888 359.882L641.008 360.266ZM631.296 356.426C632.192 356.922 633.328 357.674 633.872 358.202L634.624 357.226C634.032 356.73 632.88 356.026 632 355.562L631.296 356.426ZM630.592 360.73C631.52 361.194 632.704 361.898 633.312 362.362L634.016 361.402C633.392 360.954 632.176 360.282 631.28 359.866L630.592 360.73ZM630.928 369.274L632 369.914C632.704 368.426 633.504 366.458 634.112 364.794L633.152 364.154C632.496 365.946 631.584 368.042 630.928 369.274Z" fill="#404040"/>
<path d="M720.88 318.474V319.45H735.136V318.474H720.88ZM720.88 321.594V322.554H735.12V321.594H720.88ZM724.64 317.402V320.666H725.824V317.402H724.64ZM730.112 317.402V320.73H731.296V317.402H730.112ZM720.832 327.594V328.554H735.2V327.594H720.832ZM727.36 326.266V332.106H728.544V326.266H727.36ZM726.944 328.074C725.536 329.322 722.8 330.442 720.496 330.922C720.752 331.162 721.072 331.594 721.248 331.882C723.552 331.29 726.32 329.994 727.84 328.522L726.944 328.074ZM728.992 328.01L728.096 328.394C729.568 330.026 732.24 331.354 734.72 331.93C734.896 331.626 735.232 331.146 735.488 330.906C733.024 330.458 730.336 329.354 728.992 328.01ZM723.056 320.41V326.41H734.64V325.434H724.24V320.41H723.056ZM726.912 320.266V324.522H732.576V320.394H731.392V323.722H728.048V320.266H726.912ZM738.032 320.57V321.482H742.48V320.57H738.032ZM745.392 320.57V321.482H749.92V320.57H745.392ZM749.408 318.154V330.474C749.408 330.778 749.312 330.858 748.992 330.874C748.672 330.89 747.568 330.906 746.464 330.842C746.64 331.194 746.848 331.754 746.912 332.09C748.368 332.09 749.312 332.074 749.872 331.866C750.416 331.674 750.608 331.29 750.608 330.474V318.154H749.408ZM738.128 318.154V319.162H742.048V323.018H738.128V324.026H743.184V318.154H738.128ZM750.032 318.154H744.688V324.042H750.032V323.034H745.84V319.162H750.032V318.154ZM737.456 318.154V332.106H738.64V318.154H737.456ZM697.568 336.434V344.77C697.568 344.994 697.488 345.042 697.248 345.058C696.992 345.074 696.192 345.074 695.312 345.042C695.472 345.378 695.664 345.89 695.712 346.226C696.88 346.242 697.648 346.21 698.128 346.018C698.592 345.81 698.736 345.458 698.736 344.786V336.434H697.568ZM694.896 338.994C694.416 340.658 693.648 342.386 692.752 343.522C693.04 343.666 693.552 343.97 693.776 344.146C694.656 342.946 695.504 341.074 696.064 339.25L694.896 338.994ZM700.192 339.25C701.12 340.61 702.032 342.45 702.368 343.666L703.472 343.17C703.104 341.954 702.176 340.162 701.216 338.802L700.192 339.25ZM701.152 343.698C700.032 347.266 697.584 349.186 693.2 350.05C693.472 350.338 693.744 350.802 693.872 351.154C698.48 350.098 701.104 347.938 702.288 344.018L701.152 343.698ZM689.472 337.394C690.496 337.874 691.744 338.658 692.368 339.25L693.056 338.274C692.448 337.698 691.168 336.962 690.128 336.53L689.472 337.394ZM688.608 341.73C689.648 342.178 690.928 342.914 691.552 343.474L692.24 342.482C691.584 341.938 690.288 341.234 689.248 340.834L688.608 341.73ZM689.12 350.098L690.144 350.882C691.04 349.41 692.096 347.394 692.896 345.714L692 344.946C691.104 346.77 689.936 348.866 689.12 350.098ZM706.848 345.49V346.514H717.776V345.49H706.848ZM707.472 343.218V344.21H719.184V343.218H707.472ZM717.424 345.49V345.666C717.264 348.594 717.088 349.682 716.8 349.97C716.704 350.114 716.544 350.13 716.272 350.13C716 350.13 715.312 350.13 714.544 350.05C714.72 350.338 714.832 350.77 714.864 351.09C715.648 351.122 716.4 351.138 716.8 351.09C717.232 351.058 717.536 350.962 717.792 350.674C718.192 350.226 718.384 349.058 718.56 345.986C718.576 345.826 718.592 345.49 718.592 345.49H717.424ZM711.408 336.338C711.264 336.866 710.976 337.65 710.72 338.21L711.76 338.418C712.064 337.938 712.464 337.218 712.784 336.53L711.408 336.338ZM707.504 337.906V338.866H715.68V341.042H707.504V342.018H716.848V337.906H707.504ZM706.848 337.906V346.066H708.048V337.906H706.848ZM711.184 347.49C711.552 348.338 711.904 349.474 712 350.178L712.96 349.89C712.88 349.202 712.512 348.098 712.096 347.266L711.184 347.49ZM713.728 347.282C714.208 347.938 714.704 348.818 714.912 349.41L715.792 349.026C715.584 348.466 715.056 347.602 714.56 346.962L713.728 347.282ZM708.576 347.522C708.832 348.466 708.976 349.682 708.944 350.466L709.984 350.306C709.984 349.522 709.824 348.306 709.552 347.378L708.576 347.522ZM706.4 347.074C706.128 348.322 705.584 349.586 704.656 350.322L705.632 350.946C706.624 350.13 707.12 348.722 707.408 347.41L706.4 347.074ZM730.16 336.386V347.538H731.296V336.386H730.16ZM725.12 342.994L725.584 344.05L734.192 340.386L733.744 339.362L725.12 342.994ZM726.848 337.89V348.578C726.848 350.322 727.392 350.754 729.232 350.754C729.632 350.754 732.736 350.754 733.168 350.754C734.848 350.754 735.232 350.05 735.424 347.842C735.088 347.778 734.624 347.586 734.336 347.394C734.224 349.234 734.064 349.666 733.12 349.666C732.48 349.666 729.792 349.666 729.264 349.666C728.192 349.666 728 349.474 728 348.594V337.89H726.848ZM733.536 339.522C733.536 342.706 733.52 344.978 733.424 345.394C733.344 345.762 733.184 345.826 732.944 345.826C732.768 345.826 732.24 345.826 731.872 345.81C732.016 346.082 732.112 346.53 732.16 346.85C732.592 346.85 733.232 346.85 733.664 346.738C734.128 346.626 734.432 346.322 734.528 345.682C734.64 345.058 734.688 342.658 734.688 339.65L734.736 339.426L733.888 339.106L733.68 339.282L733.392 339.522H733.536ZM720.656 340.242V341.378H725.744V340.242H720.656ZM722.72 336.578V346.962H723.856V336.578H722.72ZM720.512 347.378L720.992 348.562C722.416 347.954 724.224 347.138 725.936 346.322L725.68 345.25C723.776 346.066 721.808 346.898 720.512 347.378ZM742.08 337.49V338.61H751.408V337.49H742.08ZM748.88 338.05V349.602C748.88 349.922 748.752 350.018 748.416 350.034C748.064 350.05 746.88 350.05 745.616 350.018C745.776 350.338 745.968 350.802 746.032 351.106C747.68 351.122 748.656 351.106 749.232 350.93C749.792 350.754 750.032 350.434 750.032 349.602V338.05H748.88ZM743.168 340.882V341.922H746.096V345.65H743.168V346.69H747.168V340.882H743.168ZM742.624 340.882V347.906H743.68V340.882H742.624ZM737.28 337.09V351.122H738.368V338.178H741.008V337.09H737.28ZM740.72 337.09V337.41C740.384 338.498 739.792 340.338 739.2 341.794C740.368 343.058 740.656 344.178 740.656 345.058C740.656 345.538 740.56 345.986 740.32 346.162C740.176 346.258 740.016 346.29 739.808 346.306C739.552 346.338 739.248 346.322 738.88 346.29C739.056 346.594 739.168 347.058 739.184 347.346C739.536 347.362 739.936 347.362 740.256 347.33C740.592 347.282 740.864 347.186 741.088 347.026C741.536 346.706 741.728 346.018 741.728 345.154C741.728 344.162 741.456 342.994 740.288 341.666C740.832 340.386 741.424 338.818 741.888 337.506L741.104 337.042L740.928 337.09H740.72ZM761.968 336.578V340.018H763.168V336.578H761.968ZM758.448 339.506V340.626H767.136V339.506H758.448ZM759.472 341.714C760.08 343.986 760.544 346.914 760.608 348.626L761.776 348.322C761.696 346.642 761.168 343.778 760.528 341.506L759.472 341.714ZM764.496 341.378C764.208 343.906 763.552 347.49 762.976 349.602L764.048 349.826C764.656 347.73 765.328 344.29 765.76 341.602L764.496 341.378ZM757.616 349.298V350.434H767.408V349.298H757.616ZM752.496 344.866L752.848 346.018C754.384 345.586 756.4 344.978 758.304 344.418L758.16 343.314C756.096 343.906 753.936 344.514 752.496 344.866ZM752.752 339.618V340.754H758V339.618H752.752ZM755.024 336.402V349.714C755.024 349.954 754.928 350.034 754.704 350.034C754.496 350.034 753.808 350.034 753.056 350.018C753.2 350.338 753.376 350.834 753.424 351.122C754.528 351.122 755.184 351.09 755.616 350.898C756.016 350.722 756.192 350.402 756.192 349.714V336.402H755.024ZM773.84 339.298V351.074H775.04V340.434H780.864V350.978H782.112V339.298H773.84ZM777.312 336.386C777.104 337.426 776.656 338.898 776.256 339.826L777.36 340.082C777.776 339.218 778.288 337.826 778.704 336.626L777.312 336.386ZM774.384 344.146V345.33H781.456V344.146H774.384ZM774.384 349.138V350.338H781.456V349.138H774.384ZM772.416 336.434C771.616 339.186 770.224 341.778 768.528 343.426C768.752 343.666 769.136 344.226 769.28 344.498C771.104 342.61 772.624 339.762 773.568 336.706L772.416 336.434ZM770.736 341.026V351.138H771.92V339.874L771.904 339.858L770.736 341.026Z" fill="#404040"/>
<path d="M1058.36 522.394C1059.29 522.858 1060.39 523.61 1060.92 524.154L1061.66 523.194C1061.08 522.65 1059.96 521.962 1059.05 521.546L1058.36 522.394ZM1057.59 526.746C1058.55 527.146 1059.7 527.834 1060.28 528.346L1060.97 527.386C1060.39 526.874 1059.22 526.234 1058.26 525.866L1057.59 526.746ZM1057.94 535.226L1059.03 535.914C1059.75 534.426 1060.6 532.458 1061.22 530.778L1060.26 530.122C1059.59 531.914 1058.63 533.994 1057.94 535.226ZM1062.28 522.97V530.89H1063.37V523.946H1070.39V530.81H1071.51V522.97H1062.28ZM1066.26 521.386C1066.12 521.978 1065.78 522.858 1065.53 523.434L1066.55 523.674C1066.86 523.146 1067.24 522.378 1067.58 521.61L1066.26 521.386ZM1068.78 524.186C1067.7 524.49 1065.7 524.73 1064.07 524.858C1064.17 525.05 1064.28 525.322 1064.31 525.498C1065.99 525.402 1068.04 525.178 1069.35 524.826L1068.78 524.186ZM1063.96 526.97V527.722H1069.83V526.97H1063.96ZM1064.5 525.786C1064.76 526.17 1065.03 526.698 1065.14 527.066L1065.82 526.746C1065.69 526.41 1065.42 525.898 1065.14 525.53L1064.5 525.786ZM1068.52 525.386C1068.38 525.754 1068.07 526.362 1067.85 526.762L1068.44 527.018C1068.7 526.666 1068.97 526.186 1069.27 525.69L1068.52 525.386ZM1061.43 531.53V532.57H1072.18V531.53H1061.43ZM1066.26 530.618C1065.93 533.066 1065.03 534.458 1061.13 535.146C1061.34 535.37 1061.64 535.85 1061.74 536.122C1065.94 535.274 1067.03 533.546 1067.43 530.618H1066.26ZM1067.22 527.722L1066.73 528.202C1067.27 528.554 1068.66 529.578 1069.14 529.994L1069.64 529.29C1069.22 529.002 1067.67 527.994 1067.22 527.722ZM1066.22 527.37C1065.67 528.25 1064.63 529.226 1063.69 529.674C1063.88 529.834 1064.14 530.138 1064.28 530.33C1065.22 529.77 1066.3 528.634 1066.84 527.61L1066.22 527.37ZM1066.38 524.874V530.25H1067.26V524.874H1066.38ZM1067.4 531.898L1066.36 532.074C1067.19 534.314 1068.95 535.594 1071.75 536.106C1071.9 535.786 1072.22 535.322 1072.47 535.082C1069.85 534.73 1068.12 533.674 1067.4 531.898ZM1082.98 521.978V535.754H1084.12V521.978H1082.98ZM1086.47 521.738V536.106H1087.62V521.738H1086.47ZM1079.59 521.754V527.338C1079.59 530.234 1079.38 533.114 1077.4 535.402C1077.7 535.562 1078.17 535.898 1078.39 536.106C1080.49 533.626 1080.73 530.49 1080.73 527.338V521.754H1079.59ZM1078.31 525.93C1078.1 527.242 1077.67 528.826 1077.02 529.786L1077.93 530.282C1078.62 529.242 1079 527.562 1079.22 526.218L1078.31 525.93ZM1080.78 526.49C1081.26 527.594 1081.69 529.034 1081.82 529.978L1082.76 529.642C1082.62 528.698 1082.17 527.258 1081.67 526.17L1080.78 526.49ZM1084.01 526.266C1084.7 527.418 1085.38 528.97 1085.64 529.994L1086.58 529.562C1086.31 528.554 1085.61 527.034 1084.89 525.882L1084.01 526.266ZM1074.3 522.426C1075.19 522.922 1076.33 523.674 1076.87 524.202L1077.62 523.226C1077.03 522.73 1075.88 522.026 1075 521.562L1074.3 522.426ZM1073.59 526.73C1074.52 527.194 1075.7 527.898 1076.31 528.362L1077.02 527.402C1076.39 526.954 1075.18 526.282 1074.28 525.866L1073.59 526.73ZM1073.93 535.274L1075 535.914C1075.7 534.426 1076.5 532.458 1077.11 530.794L1076.15 530.154C1075.5 531.946 1074.58 534.042 1073.93 535.274ZM1093.37 535.722L1094.46 534.794C1093.45 533.626 1092.01 532.186 1090.86 531.258L1089.82 532.17C1090.95 533.098 1092.33 534.458 1093.37 535.722ZM1107.7 527.946V529.114H1118.09V527.946H1107.7ZM1112.28 522.938V528.554H1113.48V522.938H1112.28ZM1107.72 522.314V523.498H1117.48V529.946H1118.73V522.314H1107.72ZM1107.03 522.314V533.05C1107.03 535.258 1107.85 535.802 1110.47 535.802C1111.1 535.802 1116.14 535.802 1116.82 535.802C1119.32 535.802 1119.86 534.938 1120.17 532.378C1119.8 532.298 1119.27 532.09 1118.94 531.882C1118.71 534.09 1118.42 534.602 1116.79 534.602C1115.74 534.602 1111.26 534.602 1110.39 534.602C1108.6 534.602 1108.28 534.314 1108.28 533.082V522.314H1107.03ZM1121.96 523.85V525.002H1136.06V523.85H1121.96ZM1129.14 525.786V536.122H1130.36V525.786H1129.14ZM1124.55 527.93V534.618H1125.74V529.082H1134.49V527.93H1124.55ZM1133.96 527.93V533.098C1133.96 533.306 1133.88 533.37 1133.61 533.386C1133.35 533.402 1132.42 533.402 1131.4 533.37C1131.58 533.69 1131.75 534.138 1131.82 534.458C1133.18 534.474 1134.02 534.458 1134.52 534.282C1135.03 534.09 1135.18 533.738 1135.18 533.114V527.93H1133.96ZM1127.38 521.386C1126.44 524.762 1124.5 528.362 1121.48 530.426C1121.72 530.682 1122.04 531.162 1122.2 531.45C1125.46 529.162 1127.46 525.402 1128.62 521.674L1127.38 521.386ZM1138.25 522.41V523.53H1151.8V522.41H1138.25ZM1137.82 534.298V535.402H1152.18V534.298H1137.82ZM1139.67 530.298V531.37H1142.58V534.89H1143.74V530.298H1139.67ZM1138.97 525.994V532.01H1140.14V527.034H1143.74V525.994H1138.97ZM1143.74 522.922H1142.58V526.506H1143.74V522.922ZM1146.14 522.938V526.522H1147.29V522.938H1146.14ZM1146.14 525.962V527.018H1149.8V531.898H1151V525.962H1146.14ZM1146.14 530.298V534.922H1147.29V531.37H1150.42V530.298H1146.14ZM1159.99 522.298V523.402H1166.39V522.298H1159.99ZM1159.75 528.09V529.21H1168.36V528.09H1159.75ZM1159.1 534.538V535.658H1168.39V534.538H1159.1ZM1162.15 522.746C1161.94 526.602 1161.43 532.042 1161 535.114H1162.22C1162.6 532.106 1163.08 526.682 1163.34 522.746H1162.15ZM1165.77 522.298C1165.8 526.346 1165.62 532.01 1165.4 535.226H1166.58C1166.79 532.074 1166.92 526.41 1166.92 522.298H1165.77ZM1156.12 521.402C1155.7 522.458 1154.97 523.994 1154.36 524.906L1155.19 525.29C1155.82 524.41 1156.57 522.986 1157.18 521.818L1156.12 521.402ZM1157.91 523.226C1157.06 524.954 1155.56 527.386 1154.38 528.826L1155.11 529.242C1156.3 527.834 1157.83 525.514 1158.92 523.674L1157.91 523.226ZM1153.59 524.762C1154.46 525.53 1155.46 526.65 1155.9 527.402L1156.54 526.49C1156.1 525.77 1155.1 524.73 1154.2 523.978L1153.59 524.762ZM1157.35 526.938C1157.99 527.994 1158.58 529.402 1158.81 530.298L1159.7 529.882C1159.48 529.002 1158.84 527.626 1158.18 526.602L1157.35 526.938ZM1153.54 528.57L1153.64 529.658C1155.1 529.562 1157.03 529.45 1158.95 529.322L1158.97 528.33C1156.94 528.442 1154.94 528.522 1153.54 528.57ZM1157.77 530.714C1158.17 531.642 1158.6 532.874 1158.74 533.674L1159.67 533.354C1159.51 532.554 1159.08 531.338 1158.63 530.442L1157.77 530.714ZM1154.44 530.538C1154.25 531.946 1153.93 533.37 1153.4 534.346C1153.66 534.458 1154.14 534.682 1154.34 534.81C1154.86 533.786 1155.26 532.234 1155.48 530.73L1154.44 530.538ZM1156.17 529.018V536.154H1157.24V529.018H1156.17ZM1072.06 540.402C1072.12 548.258 1073.9 555.09 1078.36 555.106C1079.67 555.106 1080.12 554.498 1080.39 552.29C1080.09 552.194 1079.67 551.954 1079.42 551.698C1079.29 553.49 1079.06 553.97 1078.41 553.97C1075.03 553.97 1073.21 547.954 1073.24 540.402H1072.06ZM1075.82 547.41C1076.52 547.81 1077.35 548.45 1077.75 548.898L1078.5 548.242C1078.1 547.778 1077.24 547.186 1076.54 546.802L1075.82 547.41ZM1069.11 551.122C1070.02 551.778 1071.18 552.69 1071.75 553.282L1072.57 552.514C1071.98 551.954 1070.79 551.058 1069.9 550.466L1069.11 551.122ZM1066.1 543.026C1067.02 543.698 1068.09 544.69 1068.58 545.362L1069.22 544.562C1068.71 543.922 1067.62 542.962 1066.71 542.322L1066.1 543.026ZM1069.96 544.85C1070.5 545.746 1071.1 546.93 1071.34 547.682L1072.22 547.298C1071.96 546.562 1071.34 545.394 1070.78 544.53L1069.96 544.85ZM1065.83 548.466V549.506H1080.2V548.466H1065.83ZM1066.01 546.274L1066.2 547.298C1067.66 547.202 1069.54 547.074 1071.43 546.946L1071.45 546.066C1069.4 546.146 1067.38 546.242 1066.01 546.274ZM1068.55 540.498C1068.22 541.314 1067.56 542.482 1067.05 543.202L1067.74 543.586C1068.28 542.914 1068.94 541.842 1069.53 540.962L1068.55 540.498ZM1070.33 541.954C1069.53 543.314 1068.1 545.234 1067 546.386L1067.7 546.786C1068.82 545.666 1070.25 543.858 1071.29 542.418L1070.33 541.954ZM1073.83 542.93C1074.71 543.538 1075.78 544.45 1076.28 545.042L1076.86 544.194C1076.36 543.618 1075.27 542.77 1074.39 542.21L1073.83 542.93ZM1077.74 544.498C1078.39 545.41 1079.06 546.658 1079.32 547.442L1080.25 547.042C1079.98 546.258 1079.27 545.058 1078.6 544.162L1077.74 544.498ZM1074.06 546.002L1074.26 546.994C1075.69 546.882 1077.51 546.738 1079.34 546.578V545.73C1077.37 545.842 1075.42 545.938 1074.06 546.002ZM1076.15 540.418C1075.8 541.218 1075.13 542.354 1074.6 543.058L1075.32 543.442C1075.88 542.786 1076.55 541.73 1077.13 540.85L1076.15 540.418ZM1078.02 541.81C1077.21 543.154 1075.78 545.058 1074.68 546.194L1075.37 546.594C1076.5 545.49 1077.91 543.698 1078.97 542.274L1078.02 541.81ZM1077.64 549.698C1076.26 551.778 1073.58 553.362 1070.6 554.178C1070.87 554.45 1071.16 554.85 1071.32 555.138C1074.44 554.178 1077.18 552.466 1078.7 550.146L1077.64 549.698ZM1068.62 549.058C1068.36 550.93 1067.77 553.138 1065.69 554.29C1065.94 554.498 1066.28 554.866 1066.44 555.138C1068.78 553.778 1069.51 551.346 1069.83 549.058H1068.62ZM1082.74 543.97V555.122H1083.96V545.154H1094.71V543.97H1082.74ZM1094.12 543.97V553.538C1094.12 553.794 1094.04 553.874 1093.75 553.89C1093.45 553.906 1092.42 553.906 1091.38 553.874C1091.56 554.21 1091.75 554.754 1091.8 555.106C1093.14 555.106 1094.09 555.09 1094.63 554.898C1095.18 554.69 1095.34 554.306 1095.34 553.554V543.97H1094.12ZM1085.54 541.106V542.178H1088.97V541.106H1085.54ZM1088.15 541.106V541.698H1088.41C1088.65 546.354 1089.88 549.73 1093.1 551.33C1093.29 551.01 1093.69 550.546 1093.94 550.29C1090.81 548.946 1089.67 545.714 1089.48 541.106H1088.15ZM1088.28 544.29C1087.86 547.298 1086.52 549.298 1084.1 550.482C1084.36 550.674 1084.74 551.138 1084.92 551.41C1087.5 550.082 1088.87 547.778 1089.42 544.482L1088.28 544.29ZM1098.25 541.41V542.53H1111.8V541.41H1098.25ZM1097.82 553.298V554.402H1112.18V553.298H1097.82ZM1099.67 549.298V550.37H1102.58V553.89H1103.74V549.298H1099.67ZM1098.97 544.994V551.01H1100.14V546.034H1103.74V544.994H1098.97ZM1103.74 541.922H1102.58V545.506H1103.74V541.922ZM1106.14 541.938V545.522H1107.29V541.938H1106.14ZM1106.14 544.962V546.018H1109.8V550.898H1111V544.962H1106.14ZM1106.14 549.298V553.922H1107.29V550.37H1110.42V549.298H1106.14ZM1123.46 541.394V542.466H1126.42V541.394H1123.46ZM1119.77 542.178V543.202H1123.14V542.178H1119.77ZM1123.62 544.354V545.362H1126.39V544.354H1123.62ZM1123.59 547.346V548.354H1126.31V547.346H1123.59ZM1115.7 544.354V545.362H1118.42V544.354H1115.7ZM1115.77 547.33V548.354H1118.44V547.33H1115.77ZM1115.06 541.506L1115.38 550.802H1116.47L1116.18 542.13C1116.38 542.098 1116.46 542.034 1116.49 541.938L1115.06 541.506ZM1125.77 541.394C1125.78 544.338 1125.66 548.418 1125.48 550.77H1126.62C1126.78 548.466 1126.87 544.402 1126.89 541.394H1125.77ZM1118.01 540.546C1117.37 540.978 1116.3 541.554 1115.37 541.986C1115.5 542.226 1115.69 542.61 1115.75 542.818C1116.78 542.434 1117.98 541.922 1118.95 541.41L1118.01 540.546ZM1119.24 546.546V550.706H1120.23V546.546H1119.24ZM1119.26 540.53V545.842H1122.38V544.866H1120.3V540.53H1119.26ZM1121.78 544.866V550.69H1122.82V544.866H1121.78ZM1113.7 550.29V551.41H1128.31V550.29H1113.7ZM1122.49 552.434C1124.2 553.282 1126.02 554.37 1127.1 555.154L1128.22 554.338C1127.05 553.538 1125.11 552.466 1123.34 551.634L1122.49 552.434ZM1118.3 551.666C1117.3 552.546 1115.38 553.65 1113.83 554.29C1114.12 554.514 1114.54 554.898 1114.74 555.138C1116.26 554.466 1118.15 553.378 1119.42 552.386L1118.3 551.666ZM1131.22 545.97V547.138H1136.28V545.97H1131.22ZM1131.22 551.026V552.178H1136.38V551.026H1131.22ZM1142.54 541.522V551.042C1142.54 551.298 1142.46 551.378 1142.2 551.378C1141.93 551.378 1141.05 551.394 1140.07 551.362C1140.26 551.698 1140.49 552.29 1140.55 552.642C1141.74 552.642 1142.58 552.626 1143.08 552.402C1143.59 552.178 1143.74 551.762 1143.74 551.074V541.522H1142.54ZM1130.65 541.826V553.554H1131.85V542.29L1130.65 541.826ZM1135.54 540.418C1134.44 541.026 1132.58 541.762 1130.95 542.242C1131.11 542.514 1131.3 542.962 1131.37 543.234C1133.11 542.754 1135.11 542.098 1136.57 541.41L1135.54 540.418ZM1137.37 541.522V555.042H1138.57V542.706H1143.19V541.522H1137.37ZM1147.72 541.186V545.554C1147.72 548.21 1147.58 551.89 1145.91 554.498C1146.22 554.626 1146.74 554.914 1146.97 555.106C1148.68 552.402 1148.92 548.354 1148.92 545.57V541.186H1147.72ZM1148.47 541.186V542.29H1157.54V544.594H1148.47V545.714H1158.76V541.186H1148.47ZM1150.6 546.482V552.498C1150.6 554.05 1151.16 554.434 1153.16 554.434C1153.59 554.434 1156.87 554.434 1157.32 554.434C1159.11 554.434 1159.53 553.81 1159.74 551.49C1159.38 551.41 1158.87 551.218 1158.58 551.01C1158.47 552.946 1158.31 553.298 1157.27 553.298C1156.54 553.298 1153.75 553.298 1153.19 553.298C1152.02 553.298 1151.8 553.17 1151.8 552.498V546.482H1150.6ZM1157.9 547.41C1156.22 548.21 1153.51 549.346 1151.13 550.162C1151.27 550.418 1151.46 550.818 1151.53 551.09C1153.96 550.274 1156.66 549.266 1158.68 548.434L1157.9 547.41Z" fill="#404040"/>
<path d="M981.296 431.37V432.346H991.36V431.37H981.296ZM981.296 428.81V429.802H991.36V428.81H981.296ZM980.656 433.93V434.986H991.968V433.93H980.656ZM991.712 433.93V434.122C991.504 437.338 991.296 438.554 990.96 438.89C990.832 439.018 990.688 439.05 990.4 439.05C990.112 439.05 989.36 439.05 988.576 438.954C988.752 439.274 988.88 439.754 988.896 440.074C989.712 440.122 990.528 440.122 990.944 440.09C991.392 440.058 991.696 439.946 991.984 439.642C992.432 439.146 992.656 437.834 992.896 434.458C992.912 434.282 992.928 433.93 992.928 433.93H991.712ZM985.44 436.122C985.872 437.05 986.272 438.266 986.4 439.002L987.392 438.73C987.264 437.994 986.848 436.794 986.4 435.914L985.44 436.122ZM988.032 435.882C988.576 436.554 989.168 437.498 989.408 438.106L990.336 437.706C990.08 437.098 989.488 436.186 988.912 435.53L988.032 435.882ZM982.688 436.234C982.944 437.258 983.168 438.57 983.168 439.434L984.272 439.258C984.224 438.378 984 437.082 983.712 436.058L982.688 436.234ZM980.384 435.674C980.128 437.066 979.584 438.506 978.576 439.354L979.552 439.978C980.64 439.034 981.136 437.466 981.44 435.962L980.384 435.674ZM985.568 426.746V434.362H986.752V426.746H985.568ZM980.656 426.17V434.426H981.824V427.226H991.92V426.17H980.656ZM995.152 427.626V428.794H1008.96V427.626H995.152ZM1001.33 425.402V440.106H1002.58V425.402H1001.33ZM1001.47 432.506C1000.03 434.938 997.264 437.274 994.592 438.362C994.864 438.602 995.248 439.082 995.44 439.386C998.144 438.122 1000.91 435.642 1002.48 432.906L1001.47 432.506ZM1002.51 432.538L1001.5 432.954C1003.06 435.69 1005.78 438.186 1008.53 439.418C1008.74 439.082 1009.12 438.602 1009.42 438.346C1006.66 437.29 1003.92 434.986 1002.51 432.538ZM997.28 431.674C998.048 432.346 999.008 433.306 999.504 433.882L1000.32 433.066C999.824 432.49 998.832 431.578 998.08 430.938L997.28 431.674ZM997.952 429.178C997.472 431.242 996.464 432.986 995.008 434.074C995.296 434.266 995.76 434.65 995.952 434.858C997.44 433.626 998.56 431.722 999.12 429.386L997.952 429.178ZM1004.98 431.706C1006.06 432.586 1007.5 433.818 1008.19 434.586L1009.04 433.754C1008.32 433.018 1006.85 431.818 1005.78 431.002L1004.98 431.706ZM1005.54 429.178C1005.18 430.97 1004.42 432.538 1003.25 433.514C1003.54 433.658 1004.05 433.994 1004.27 434.186C1005.41 433.066 1006.27 431.386 1006.69 429.37L1005.54 429.178ZM1012.42 437.93V439.05H1023.74V437.93H1012.42ZM1011.63 429.914V440.042H1012.8V431.034H1023.22V439.994H1024.43V429.914H1011.63ZM1018.99 430.426V433.818C1018.99 434.97 1019.28 435.29 1020.46 435.29C1020.7 435.29 1021.79 435.29 1022.05 435.29C1022.94 435.29 1023.26 434.922 1023.39 433.434C1023.07 433.354 1022.59 433.178 1022.37 433.002C1022.34 434.074 1022.26 434.218 1021.9 434.218C1021.68 434.218 1020.8 434.218 1020.62 434.218C1020.22 434.218 1020.16 434.17 1020.16 433.818V430.426H1018.99ZM1010.94 426.442V427.61H1025.01V426.442H1010.94ZM1015.47 427.226V430.554H1016.64V427.226H1015.47ZM1019.01 427.226V430.554H1020.21V427.226H1019.01ZM1015.52 430.234V431.77C1015.52 432.986 1015.12 434.394 1012.93 435.45C1013.17 435.61 1013.62 436.01 1013.78 436.25C1016.11 435.082 1016.64 433.306 1016.64 431.802V430.234H1015.52ZM1027.25 426.41V427.53H1040.8V426.41H1027.25ZM1026.82 438.298V439.402H1041.18V438.298H1026.82ZM1028.67 434.298V435.37H1031.58V438.89H1032.74V434.298H1028.67ZM1027.97 429.994V436.01H1029.14V431.034H1032.74V429.994H1027.97ZM1032.74 426.922H1031.58V430.506H1032.74V426.922ZM1035.14 426.938V430.522H1036.29V426.938H1035.14ZM1035.14 429.962V431.018H1038.8V435.898H1040V429.962H1035.14ZM1035.14 434.298V438.922H1036.29V435.37H1039.42V434.298H1035.14ZM996.224 449.97V451.138H1001.28V449.97H996.224ZM996.224 455.026V456.178H1001.38V455.026H996.224ZM1007.54 445.522V455.042C1007.54 455.298 1007.46 455.378 1007.2 455.378C1006.93 455.378 1006.05 455.394 1005.07 455.362C1005.26 455.698 1005.49 456.29 1005.55 456.642C1006.74 456.642 1007.58 456.626 1008.08 456.402C1008.59 456.178 1008.74 455.762 1008.74 455.074V445.522H1007.54ZM995.648 445.826V457.554H996.848V446.29L995.648 445.826ZM1000.54 444.418C999.44 445.026 997.584 445.762 995.952 446.242C996.112 446.514 996.304 446.962 996.368 447.234C998.112 446.754 1000.11 446.098 1001.57 445.41L1000.54 444.418ZM1002.37 445.522V459.042H1003.57V446.706H1008.19V445.522H1002.37ZM1012.72 445.186V449.554C1012.72 452.21 1012.58 455.89 1010.91 458.498C1011.22 458.626 1011.74 458.914 1011.97 459.106C1013.68 456.402 1013.92 452.354 1013.92 449.57V445.186H1012.72ZM1013.47 445.186V446.29H1022.54V448.594H1013.47V449.714H1023.76V445.186H1013.47ZM1015.6 450.482V456.498C1015.6 458.05 1016.16 458.434 1018.16 458.434C1018.59 458.434 1021.87 458.434 1022.32 458.434C1024.11 458.434 1024.53 457.81 1024.74 455.49C1024.38 455.41 1023.87 455.218 1023.58 455.01C1023.47 456.946 1023.31 457.298 1022.27 457.298C1021.54 457.298 1018.75 457.298 1018.19 457.298C1017.02 457.298 1016.8 457.17 1016.8 456.498V450.482H1015.6ZM1022.9 451.41C1021.22 452.21 1018.51 453.346 1016.13 454.162C1016.27 454.418 1016.46 454.818 1016.53 455.09C1018.96 454.274 1021.66 453.266 1023.68 452.434L1022.9 451.41Z" fill="#404040"/>
<path d="M927.736 346.538V347.53H942.264V346.538H927.736ZM933.176 338.618V339.578H941V338.618H933.176ZM933.16 340.874V341.786H940.2V340.874H933.16ZM933.096 345.258C932.216 346.634 930.92 348.474 930.008 349.594L931.112 349.994C932.008 348.826 933.304 347.018 934.248 345.562L933.096 345.258ZM938.072 346.906C936.824 349.866 933.704 350.858 927.912 351.082C928.088 351.354 928.248 351.77 928.328 352.106C934.424 351.738 937.848 350.586 939.208 347.178L938.072 346.906ZM930.776 349.482C934.808 350.17 938.696 351.178 941.112 352.122L941.8 351.162C939.336 350.25 935.272 349.242 931.368 348.618L930.776 349.482ZM927.672 340.282C928.536 340.618 929.576 341.194 930.104 341.626L930.68 340.826C930.136 340.394 929.08 339.866 928.216 339.562L927.672 340.282ZM928.632 338.154C929.464 338.49 930.52 339.034 931.032 339.45L931.608 338.634C931.064 338.234 930.024 337.706 929.208 337.418L928.632 338.154ZM927.848 344.97L928.616 345.754C929.48 344.794 930.488 343.594 931.32 342.538L930.68 341.802C929.752 342.97 928.632 344.218 927.848 344.97ZM932.648 338.618V340.346C932.648 341.738 932.36 343.578 930.712 344.938C930.984 345.066 931.448 345.434 931.64 345.642C933.4 344.17 933.768 341.994 933.768 340.378V338.618H932.648ZM936.504 337.402V341.322H937.64V337.402H936.504ZM940.76 338.618V338.762C940.568 339.338 940.248 340.026 939.976 340.458L940.968 340.682C941.272 340.186 941.64 339.434 941.928 338.778L941.144 338.57L940.936 338.618H940.76ZM935.144 341.322L934.232 341.61C935.56 343.85 938.216 345.178 941.544 345.674C941.688 345.386 941.96 344.954 942.2 344.73C938.952 344.362 936.312 343.21 935.144 341.322ZM939.816 340.874V341.034C938.776 343.066 935.96 344.218 933.176 344.65C933.368 344.858 933.608 345.274 933.704 345.53C936.712 344.97 939.656 343.658 940.904 341.146L940.232 340.826L940.04 340.874H939.816ZM953.368 338.938H956.12V340.554H953.368V338.938ZM949.576 338.938H952.264V340.554H949.576V338.938ZM945.864 338.938H948.472V340.554H945.864V338.938ZM944.712 338.026V341.482H957.32V338.026H944.712ZM946.584 346.954V352.122H947.704V346.954H946.584ZM954.168 344.234V350.954H955.24V344.234H954.168ZM948.248 345.258C948.824 346.138 949.416 347.322 949.624 348.09L950.536 347.69C950.312 346.938 949.72 345.786 949.112 344.938L948.248 345.258ZM943.96 343.658C944.872 344.298 945.976 345.226 946.488 345.866L947.16 345.05C946.632 344.426 945.496 343.546 944.584 342.954L943.96 343.658ZM948.296 348.41C948.792 349.258 949.272 350.378 949.432 351.082L950.392 350.714C950.216 350.01 949.704 348.906 949.208 348.106L948.296 348.41ZM946.68 341.354C946.28 342.122 945.544 343.194 944.984 343.866L945.8 344.282C946.376 343.642 947.064 342.698 947.656 341.818L946.68 341.354ZM948.68 342.586C947.832 343.882 946.328 345.626 945.176 346.682L945.96 347.162C947.112 346.106 948.552 344.474 949.64 343.082L948.68 342.586ZM943.72 346.506L943.8 347.546C945.368 347.514 947.496 347.434 949.592 347.354L949.608 346.41C947.416 346.458 945.224 346.49 943.72 346.506ZM944.84 348.122C944.584 349.194 944.136 350.266 943.576 351.018C943.832 351.13 944.312 351.37 944.504 351.53C945.064 350.73 945.576 349.53 945.88 348.362L944.84 348.122ZM952.056 341.578C951.48 343.066 950.552 344.554 949.496 345.546C949.752 345.706 950.2 346.042 950.408 346.234C951.448 345.146 952.488 343.498 953.144 341.85L952.056 341.578ZM954.952 341.674C954.712 342.394 954.264 343.45 953.88 344.138L954.776 344.41C955.176 343.786 955.656 342.826 956.072 341.962L954.952 341.674ZM952.184 343.61H951.64L951.096 344.17V352.122H952.184V344.602H958.056V343.61H952.184ZM951.656 345.93V346.842H957.672V345.93H951.656ZM951.656 348.202V349.114H957.672V348.202H951.656ZM951.592 350.49V351.482H958.312V350.49H951.592ZM968.984 337.978V351.754H970.12V337.978H968.984ZM972.472 337.738V352.106H973.624V337.738H972.472ZM965.592 337.754V343.338C965.592 346.234 965.384 349.114 963.4 351.402C963.704 351.562 964.168 351.898 964.392 352.106C966.488 349.626 966.728 346.49 966.728 343.338V337.754H965.592ZM964.312 341.93C964.104 343.242 963.672 344.826 963.016 345.786L963.928 346.282C964.616 345.242 965 343.562 965.224 342.218L964.312 341.93ZM966.776 342.49C967.256 343.594 967.688 345.034 967.816 345.978L968.76 345.642C968.616 344.698 968.168 343.258 967.672 342.17L966.776 342.49ZM970.008 342.266C970.696 343.418 971.384 344.97 971.64 345.994L972.584 345.562C972.312 344.554 971.608 343.034 970.888 341.882L970.008 342.266ZM960.296 338.426C961.192 338.922 962.328 339.674 962.872 340.202L963.624 339.226C963.032 338.73 961.88 338.026 961 337.562L960.296 338.426ZM959.592 342.73C960.52 343.194 961.704 343.898 962.312 344.362L963.016 343.402C962.392 342.954 961.176 342.282 960.28 341.866L959.592 342.73ZM959.928 351.274L961 351.914C961.704 350.426 962.504 348.458 963.112 346.794L962.152 346.154C961.496 347.946 960.584 350.042 959.928 351.274ZM913.224 361.97V363.138H918.28V361.97H913.224ZM913.224 367.026V368.178H918.376V367.026H913.224ZM924.536 357.522V367.042C924.536 367.298 924.456 367.378 924.2 367.378C923.928 367.378 923.048 367.394 922.072 367.362C922.264 367.698 922.488 368.29 922.552 368.642C923.736 368.642 924.584 368.626 925.08 368.402C925.592 368.178 925.736 367.762 925.736 367.074V357.522H924.536ZM912.648 357.826V369.554H913.848V358.29L912.648 357.826ZM917.544 356.418C916.44 357.026 914.584 357.762 912.952 358.242C913.112 358.514 913.304 358.962 913.368 359.234C915.112 358.754 917.112 358.098 918.568 357.41L917.544 356.418ZM919.368 357.522V371.042H920.568V358.706H925.192V357.522H919.368ZM929.72 357.186V361.554C929.72 364.21 929.576 367.89 927.912 370.498C928.216 370.626 928.744 370.914 928.968 371.106C930.68 368.402 930.92 364.354 930.92 361.57V357.186H929.72ZM930.472 357.186V358.29H939.544V360.594H930.472V361.714H940.76V357.186H930.472ZM932.6 362.482V368.498C932.6 370.05 933.16 370.434 935.16 370.434C935.592 370.434 938.872 370.434 939.32 370.434C941.112 370.434 941.528 369.81 941.736 367.49C941.384 367.41 940.872 367.218 940.584 367.01C940.472 368.946 940.312 369.298 939.272 369.298C938.536 369.298 935.752 369.298 935.192 369.298C934.024 369.298 933.8 369.17 933.8 368.498V362.482H932.6ZM939.896 363.41C938.216 364.21 935.512 365.346 933.128 366.162C933.272 366.418 933.464 366.818 933.528 367.09C935.96 366.274 938.664 365.266 940.68 364.434L939.896 363.41ZM947.368 370.722L948.456 369.794C947.448 368.626 946.008 367.186 944.856 366.258L943.816 367.17C944.952 368.098 946.328 369.458 947.368 370.722ZM960.6 369.49L961.176 370.498C962.456 370.018 964.072 369.378 965.608 368.754L965.416 367.826C963.656 368.45 961.816 369.106 960.6 369.49ZM966.344 364.066V369.906C966.344 370.098 966.28 370.162 966.056 370.162C965.848 370.178 965.112 370.178 964.296 370.146C964.456 370.434 964.616 370.85 964.68 371.138C965.8 371.138 966.488 371.122 966.936 370.962C967.384 370.818 967.528 370.53 967.528 369.922V364.066H966.344ZM967.944 368.466C969.528 369.106 971.56 370.146 972.648 370.818L973.288 369.826C972.184 369.202 970.152 368.21 968.568 367.602L967.944 368.466ZM962.488 365.522C963.256 366.066 964.152 366.882 964.568 367.426L965.336 366.642C964.92 366.098 963.992 365.346 963.224 364.834L962.488 365.522ZM970.616 364.69C970.104 365.266 969.176 366.114 968.536 366.594L969.288 367.202C969.976 366.754 970.84 366.034 971.544 365.362L970.616 364.69ZM959.816 362.674V363.698H974.184V362.674H959.816ZM961.512 360.242V361.202H972.792V360.242H961.512ZM960.68 357.906V358.914H973.416V357.906H960.68ZM968.984 360.498L967.944 360.834C969.144 363.378 971.288 365.602 973.672 366.722C973.848 366.402 974.216 365.954 974.488 365.73C972.168 364.786 970.04 362.754 968.984 360.498ZM966.136 356.402C965.672 359.874 963.752 363.778 959.56 365.97C959.848 366.13 960.264 366.514 960.456 366.802C964.744 364.418 966.744 360.322 967.4 356.514L966.136 356.402ZM978.328 360.338V361.25H987.704V360.338H978.328ZM985 359.026C985.608 359.33 986.344 359.794 986.728 360.178L987.304 359.538C986.92 359.17 986.184 358.722 985.56 358.45L985 359.026ZM986.056 361.986C985.368 364.754 983.896 366.834 981.72 368.098C981.928 368.274 982.28 368.674 982.424 368.866C984.632 367.442 986.232 365.202 987.032 362.178L986.056 361.986ZM978.168 366.882L978.328 367.794C979.656 367.554 981.368 367.202 983.032 366.882L983 366.034C981.192 366.37 979.4 366.674 978.168 366.882ZM979.752 363.01H981.576V364.626H979.752V363.01ZM978.888 362.258V365.362H982.456V362.258H978.888ZM983.064 358.626C983.352 363.57 984.008 368.114 986.216 368.594C987.064 368.898 987.624 368.258 987.832 366.498C987.608 366.402 987.24 366.146 987.048 365.954C986.936 366.994 986.776 367.666 986.552 367.618C985 367.378 984.296 363.154 984.088 358.626H983.064ZM976.312 357.138V371.17H977.448V358.226H988.488V371.17H989.688V357.138H976.312ZM977.016 369.33V370.418H989.16V369.33H977.016ZM943 378.17V385.658H944.072V379.21H950.36V378.17H943ZM941.608 386.058L942.136 387.002C943.304 386.314 944.824 385.418 946.248 384.554L945.912 383.658C944.328 384.57 942.664 385.498 941.608 386.058ZM936.312 377.37V378.442H942.296V377.37H936.312ZM935.688 380.458V381.546H942.6V380.458H935.688ZM939.448 383.77V384.826H942.408V383.77H939.448ZM938.76 375.402V381.082H939.88V375.402H938.76ZM939 381.178V388.41H940.104V381.178H939ZM937.496 384.522L936.616 384.826C937.752 388.842 939.784 389.706 944.104 389.706H950.008C950.088 389.354 950.312 388.794 950.504 388.522C949.544 388.554 944.84 388.554 944.104 388.554C940.376 388.554 938.44 387.882 937.496 384.522ZM945.8 375.402C945.896 382.122 946.744 387.738 949.08 387.738C950.056 387.738 950.408 387.066 950.6 384.826C950.312 384.714 949.944 384.49 949.72 384.25C949.656 385.93 949.512 386.634 949.192 386.634C947.848 386.634 946.92 381.802 946.952 375.402H945.8ZM947.608 375.978C948.2 376.57 948.856 377.418 949.16 377.962L950.04 377.45C949.736 376.922 949.048 376.106 948.456 375.546L947.608 375.978ZM936.6 382.634C936.632 384.762 936.504 387.45 935.336 389.354C935.592 389.466 935.976 389.818 936.152 390.074C937.464 387.962 937.64 385.082 937.624 382.698L936.6 382.634ZM949.08 380.218C948.216 383.194 946.472 385.898 944.248 387.162C944.472 387.37 944.808 387.754 944.984 388.01C947.288 386.538 949.08 383.754 950.008 380.474L949.08 380.218ZM951.96 377.002V378.138H966.056V377.002H951.96ZM955.256 383.418V384.394H962.824V383.418H955.256ZM954.92 386.026V387.034H963.112V386.026H954.92ZM958.36 383.882V389.802H959.512V383.882H958.36ZM952.824 379.818V390.09H954.024V380.938H964.392V379.818H952.824ZM963.976 379.818V388.714C963.976 388.97 963.912 389.05 963.624 389.066C963.336 389.082 962.344 389.082 961.336 389.034C961.512 389.338 961.704 389.802 961.768 390.122C963.08 390.122 963.992 390.106 964.504 389.93C965.032 389.754 965.208 389.418 965.208 388.714V379.818H963.976ZM956.056 381.466C956.456 382.058 956.872 382.874 957.032 383.418L958.04 383.05C957.864 382.522 957.448 381.738 957.016 381.162L956.056 381.466ZM960.952 381.146C960.68 381.834 960.184 382.842 959.784 383.498L960.648 383.786C961.064 383.178 961.56 382.282 961.976 381.45L960.952 381.146ZM958.328 375.402V380.57H959.656V375.402H958.328ZM922.296 400.37V401.346H932.36V400.37H922.296ZM922.296 397.81V398.802H932.36V397.81H922.296ZM921.656 402.93V403.986H932.968V402.93H921.656ZM932.712 402.93V403.122C932.504 406.338 932.296 407.554 931.96 407.89C931.832 408.018 931.688 408.05 931.4 408.05C931.112 408.05 930.36 408.05 929.576 407.954C929.752 408.274 929.88 408.754 929.896 409.074C930.712 409.122 931.528 409.122 931.944 409.09C932.392 409.058 932.696 408.946 932.984 408.642C933.432 408.146 933.656 406.834 933.896 403.458C933.912 403.282 933.928 402.93 933.928 402.93H932.712ZM926.44 405.122C926.872 406.05 927.272 407.266 927.4 408.002L928.392 407.73C928.264 406.994 927.848 405.794 927.4 404.914L926.44 405.122ZM929.032 404.882C929.576 405.554 930.168 406.498 930.408 407.106L931.336 406.706C931.08 406.098 930.488 405.186 929.912 404.53L929.032 404.882ZM923.688 405.234C923.944 406.258 924.168 407.57 924.168 408.434L925.272 408.258C925.224 407.378 925 406.082 924.712 405.058L923.688 405.234ZM921.384 404.674C921.128 406.066 920.584 407.506 919.576 408.354L920.552 408.978C921.64 408.034 922.136 406.466 922.44 404.962L921.384 404.674ZM926.568 395.746V403.362H927.752V395.746H926.568ZM921.656 395.17V403.426H922.824V396.226H932.92V395.17H921.656ZM936.152 396.626V397.794H949.96V396.626H936.152ZM942.328 394.402V409.106H943.576V394.402H942.328ZM942.472 401.506C941.032 403.938 938.264 406.274 935.592 407.362C935.864 407.602 936.248 408.082 936.44 408.386C939.144 407.122 941.912 404.642 943.48 401.906L942.472 401.506ZM943.512 401.538L942.504 401.954C944.056 404.69 946.776 407.186 949.528 408.418C949.736 408.082 950.12 407.602 950.424 407.346C947.656 406.29 944.92 403.986 943.512 401.538ZM938.28 400.674C939.048 401.346 940.008 402.306 940.504 402.882L941.32 402.066C940.824 401.49 939.832 400.578 939.08 399.938L938.28 400.674ZM938.952 398.178C938.472 400.242 937.464 401.986 936.008 403.074C936.296 403.266 936.76 403.65 936.952 403.858C938.44 402.626 939.56 400.722 940.12 398.386L938.952 398.178ZM945.976 400.706C947.064 401.586 948.504 402.818 949.192 403.586L950.04 402.754C949.32 402.018 947.848 400.818 946.776 400.002L945.976 400.706ZM946.536 398.178C946.184 399.97 945.416 401.538 944.248 402.514C944.536 402.658 945.048 402.994 945.272 403.186C946.408 402.066 947.272 400.386 947.688 398.37L946.536 398.178ZM953.416 406.93V408.05H964.744V406.93H953.416ZM952.632 398.914V409.042H953.8V400.034H964.216V408.994H965.432V398.914H952.632ZM959.992 399.426V402.818C959.992 403.97 960.28 404.29 961.464 404.29C961.704 404.29 962.792 404.29 963.048 404.29C963.944 404.29 964.264 403.922 964.392 402.434C964.072 402.354 963.592 402.178 963.368 402.002C963.336 403.074 963.256 403.218 962.904 403.218C962.68 403.218 961.8 403.218 961.624 403.218C961.224 403.218 961.16 403.17 961.16 402.818V399.426H959.992ZM951.944 395.442V396.61H966.008V395.442H951.944ZM956.472 396.226V399.554H957.64V396.226H956.472ZM960.008 396.226V399.554H961.208V396.226H960.008ZM956.52 399.234V400.77C956.52 401.986 956.12 403.394 953.928 404.45C954.168 404.61 954.616 405.01 954.776 405.25C957.112 404.082 957.64 402.306 957.64 400.802V399.234H956.52ZM968.248 395.41V396.53H981.8V395.41H968.248ZM967.816 407.298V408.402H982.184V407.298H967.816ZM969.672 403.298V404.37H972.584V407.89H973.736V403.298H969.672ZM968.968 398.994V405.01H970.136V400.034H973.736V398.994H968.968ZM973.736 395.922H972.584V399.506H973.736V395.922ZM976.136 395.938V399.522H977.288V395.938H976.136ZM976.136 398.962V400.018H979.8V404.898H981V398.962H976.136ZM976.136 403.298V407.922H977.288V404.37H980.424V403.298H976.136Z" fill="#404040"/>
<path d="M930.536 232.25V239.866H931.736V233.434H942.184V239.786H943.432V232.25H930.536ZM931.176 237.69V238.858H942.904V237.69H931.176ZM936.328 229.386V244.09H937.576V229.386H936.328ZM948.328 233.338V234.25H957.704V233.338H948.328ZM955 232.026C955.608 232.33 956.344 232.794 956.728 233.178L957.304 232.538C956.92 232.17 956.184 231.722 955.56 231.45L955 232.026ZM956.056 234.986C955.368 237.754 953.896 239.834 951.72 241.098C951.928 241.274 952.28 241.674 952.424 241.866C954.632 240.442 956.232 238.202 957.032 235.178L956.056 234.986ZM948.168 239.882L948.328 240.794C949.656 240.554 951.368 240.202 953.032 239.882L953 239.034C951.192 239.37 949.4 239.674 948.168 239.882ZM949.752 236.01H951.576V237.626H949.752V236.01ZM948.888 235.258V238.362H952.456V235.258H948.888ZM953.064 231.626C953.352 236.57 954.008 241.114 956.216 241.594C957.064 241.898 957.624 241.258 957.832 239.498C957.608 239.402 957.24 239.146 957.048 238.954C956.936 239.994 956.776 240.666 956.552 240.618C955 240.378 954.296 236.154 954.088 231.626H953.064ZM946.312 230.138V244.17H947.448V231.226H958.488V244.17H959.688V230.138H946.312ZM947.016 242.33V243.418H959.16V242.33H947.016ZM962.04 230.922V232.042H976.024V230.922H962.04ZM968.328 229.402V244.106H969.576V229.402H968.328ZM967.96 238.57C966.6 240.33 963.976 242.042 961.64 242.858C961.928 243.098 962.296 243.562 962.488 243.866C964.824 242.906 967.464 241.034 968.968 239.018L967.96 238.57ZM969.976 238.586L969 239.034C970.504 241.034 973.176 242.954 975.544 243.898C975.736 243.562 976.104 243.098 976.392 242.858C974.024 242.058 971.352 240.346 969.976 238.586ZM964.616 236.778H973.512V238.314H964.616V236.778ZM964.616 234.346H973.512V235.866H964.616V234.346ZM963.448 233.402V239.274H974.728V233.402H963.448ZM978.024 233.45V234.65H982.728V233.45H978.024ZM986.04 229.69V241.546C986.04 243.274 986.488 243.754 987.976 243.754C988.296 243.754 990.216 243.754 990.552 243.754C992.12 243.754 992.44 242.714 992.584 239.786C992.248 239.706 991.736 239.466 991.432 239.226C991.32 241.882 991.208 242.57 990.472 242.57C990.056 242.57 988.456 242.57 988.104 242.57C987.416 242.57 987.272 242.41 987.272 241.578V229.69H986.04ZM982.136 229.69V243.978H983.368V229.69H982.136ZM991.256 232.154C990.056 233.258 988.072 234.618 986.296 235.594C986.472 235.85 986.712 236.266 986.808 236.538C988.616 235.546 990.664 234.33 992.136 233.194L991.256 232.154ZM977.528 240.874L978.088 242.074C979.464 241.498 981.272 240.746 982.952 240.01L982.728 238.922C980.824 239.674 978.824 240.442 977.528 240.874ZM1001.93 240.922V242.074H1006.89V240.922H1001.93ZM1001.48 230.89V243.402H1002.65V232.026H1006.23V243.29H1007.45V230.89H1001.48ZM996.936 230.746V244.09H998.136V230.746H996.936ZM993.8 234.122V235.242H1000.94V234.122H993.8ZM996.872 234.522C996.232 236.73 994.76 239.322 993.416 240.698C993.624 240.986 993.928 241.466 994.056 241.802C995.496 240.266 996.968 237.306 997.72 234.826L996.872 234.522ZM1000.01 229.546C998.616 230.122 996.072 230.602 993.944 230.89C994.088 231.162 994.232 231.562 994.296 231.834C996.488 231.578 999.112 231.114 1000.82 230.474L1000.01 229.546ZM998.04 235.562L997.432 236.154C998.024 236.858 999.576 238.906 1000.09 239.754L1000.82 238.778C1000.41 238.25 998.552 236.074 998.04 235.562ZM1009.83 235.866V236.906H1024.18V235.866H1009.83ZM1010.01 240.922V241.978H1024.02V240.922H1010.01ZM1010.97 233.29V234.314H1023.14V233.29H1010.97ZM1010.73 238.522V239.53H1023.42V238.522H1010.73ZM1016.34 233.674V244.138H1017.53V233.674H1016.34ZM1012.74 233.754V239.018H1013.86V233.754H1012.74ZM1020.14 233.754V239.018H1021.27V233.754H1020.14ZM1013.59 229.402V232.842H1014.78V229.402H1013.59ZM1019.11 229.402V232.842H1020.3V229.402H1019.11ZM1009.98 230.538V231.61H1024.04V230.538H1009.98ZM1026.02 233.45V234.65H1030.73V233.45H1026.02ZM1034.04 229.69V241.546C1034.04 243.274 1034.49 243.754 1035.98 243.754C1036.3 243.754 1038.22 243.754 1038.55 243.754C1040.12 243.754 1040.44 242.714 1040.58 239.786C1040.25 239.706 1039.74 239.466 1039.43 239.226C1039.32 241.882 1039.21 242.57 1038.47 242.57C1038.06 242.57 1036.46 242.57 1036.1 242.57C1035.42 242.57 1035.27 242.41 1035.27 241.578V229.69H1034.04ZM1030.14 229.69V243.978H1031.37V229.69H1030.14ZM1039.26 232.154C1038.06 233.258 1036.07 234.618 1034.3 235.594C1034.47 235.85 1034.71 236.266 1034.81 236.538C1036.62 235.546 1038.66 234.33 1040.14 233.194L1039.26 232.154ZM1025.53 240.874L1026.09 242.074C1027.46 241.498 1029.27 240.746 1030.95 240.01L1030.73 238.922C1028.82 239.674 1026.82 240.442 1025.53 240.874Z" fill="#404040"/>
</svg>
