<svg width="1280" height="720" viewBox="0 0 1280 720" fill="none" xmlns="http://www.w3.org/2000/svg">
<path d="M507.262 671.29H514.892V672.452H507.262V671.29ZM507.262 672.97H514.892V674.16H507.262V672.97ZM507.262 669.596H514.892V670.758H507.262V669.596ZM506.604 669.064V674.692H515.564V669.064H506.604ZM512.456 675.336C514.038 675.812 515.606 676.372 516.558 676.806L517.16 676.386C516.138 675.938 514.486 675.364 512.932 674.93L512.456 675.336ZM508.984 674.916C507.948 675.476 506.254 675.98 504.84 676.302C504.994 676.428 505.246 676.708 505.33 676.834C506.716 676.456 508.466 675.84 509.6 675.21L508.984 674.916ZM510.58 665.158V665.732H516.404V665.158H510.58ZM510.874 664.136C510.538 665.186 509.95 666.208 509.25 666.908C509.404 666.992 509.67 667.174 509.782 667.272C510.482 666.544 511.126 665.424 511.504 664.276L510.874 664.136ZM512.68 665.41V665.844C512.68 666.656 512.386 667.79 508.62 668.392C508.746 668.518 508.928 668.756 508.998 668.924C512.932 668.224 513.324 666.936 513.324 665.858V665.41H512.68ZM513.184 666.404L512.694 666.544C513.436 667.692 515.074 668.518 517.006 668.826C517.09 668.644 517.272 668.392 517.412 668.266C515.522 668.056 513.884 667.356 513.184 666.404ZM505.036 665.074V665.648H508.284V665.074H505.036ZM504.728 667.272V667.86H508.648V667.272H504.728ZM516.208 665.158V665.27C515.942 665.872 515.55 666.572 515.228 667.034L515.774 667.216C516.138 666.74 516.558 665.97 516.908 665.298L516.46 665.116L516.334 665.158H516.208ZM521.066 664.164V676.862H521.71V664.164H521.066ZM518.728 668.882V669.512H524.132V668.882H518.728ZM518.896 665.214C519.288 666.166 519.652 667.426 519.736 668.238L520.31 668.098C520.198 667.272 519.848 666.026 519.428 665.074L518.896 665.214ZM523.362 665.032C523.138 665.956 522.69 667.342 522.34 668.14L522.816 668.308C523.194 667.538 523.642 666.236 523.992 665.228L523.362 665.032ZM528.878 664.164V676.862H529.536V664.164H528.878ZM524.118 673.166L524.23 673.782L531.426 672.48L531.314 671.864L524.118 673.166ZM525.322 665.76C526.148 666.25 527.114 667.006 527.562 667.552L527.926 667.02C527.464 666.488 526.526 665.76 525.686 665.298L525.322 665.76ZM524.552 669.288C525.406 669.736 526.414 670.436 526.918 670.926L527.254 670.38C526.764 669.89 525.728 669.246 524.874 668.826L524.552 669.288ZM519.988 670.506C519.736 671.878 519.12 673.6 518.56 674.482C518.7 674.65 518.882 674.944 518.966 675.154C519.61 674.16 520.212 672.186 520.52 670.674L519.988 670.506ZM522.424 670.506L522.032 670.772C522.298 671.332 523.124 673.236 523.348 673.95L523.88 673.446C523.67 672.942 522.69 670.94 522.424 670.506ZM533.036 666.236V666.894H545.062V666.236H533.036ZM538.608 664.164V676.862H539.308V664.164H538.608ZM538.692 670.31C537.404 672.508 534.912 674.622 532.616 675.602C532.77 675.742 532.98 675.98 533.092 676.162C535.374 675.084 537.908 672.9 539.28 670.548L538.692 670.31ZM539.266 670.296L538.692 670.548C540.022 672.942 542.5 675.168 544.908 676.232C545.02 676.036 545.23 675.784 545.412 675.63C542.99 674.692 540.526 672.564 539.266 670.296ZM535.01 669.442C535.682 670.058 536.508 670.898 536.942 671.416L537.432 670.968C537.012 670.45 536.158 669.638 535.486 669.05L535.01 669.442ZM535.598 667.356C535.164 669.232 534.282 670.786 532.98 671.78C533.148 671.878 533.414 672.088 533.526 672.214C534.814 671.136 535.78 669.512 536.27 667.482L535.598 667.356ZM541.772 669.456C542.752 670.254 543.998 671.36 544.6 672.046L545.09 671.57C544.46 670.912 543.214 669.82 542.234 669.078L541.772 669.456ZM542.248 667.356C541.94 669.036 541.254 670.436 540.19 671.332C540.372 671.43 540.652 671.626 540.764 671.738C541.8 670.744 542.556 669.274 542.906 667.468L542.248 667.356ZM551.054 664.808V665.438H559.244V664.808H551.054ZM550.788 664.808V668.63C550.788 670.954 550.634 674.132 549.024 676.428C549.192 676.484 549.472 676.666 549.584 676.778C551.236 674.426 551.46 671.038 551.46 668.63V664.808H550.788ZM553.084 669.932H557.984V671.43H553.084V669.932ZM553.084 667.874H557.984V669.358H553.084V667.874ZM552.468 667.3V672.018H558.628V667.3H552.468ZM553.112 672.928C552.664 673.908 551.992 674.902 551.306 675.602C551.46 675.7 551.74 675.868 551.866 675.98C552.524 675.252 553.252 674.132 553.742 673.11L553.112 672.928ZM557.06 673.082C557.676 673.978 558.418 675.154 558.768 675.84L559.398 675.532C559.02 674.874 558.278 673.712 557.648 672.844L557.06 673.082ZM555.17 665.788C555.058 666.278 554.82 667.048 554.652 667.524L555.184 667.706C555.408 667.258 555.66 666.572 555.898 665.97L555.17 665.788ZM555.156 671.668V676.05C555.156 676.218 555.1 676.274 554.904 676.288C554.722 676.288 554.092 676.302 553.322 676.274C553.42 676.456 553.504 676.708 553.532 676.862C554.498 676.876 555.086 676.876 555.408 676.764C555.716 676.666 555.8 676.47 555.8 676.064V671.668H555.156ZM547.302 664.794C548.1 665.298 549.136 666.012 549.668 666.446L550.074 665.9C549.542 665.494 548.506 664.808 547.708 664.332L547.302 664.794ZM546.602 668.56C547.428 669.008 548.478 669.694 549.024 670.086L549.416 669.554C548.856 669.148 547.806 668.518 547.008 668.098L546.602 668.56ZM546.966 676.26L547.554 676.666C548.254 675.406 549.122 673.586 549.738 672.116L549.192 671.738C548.534 673.278 547.624 675.182 546.966 676.26ZM567 667.986C567.462 667.986 567.882 667.664 567.882 667.09C567.882 666.53 567.462 666.194 567 666.194C566.524 666.194 566.104 666.53 566.104 667.09C566.104 667.664 566.524 667.986 567 667.986ZM567 674.944C567.462 674.944 567.882 674.622 567.882 674.048C567.882 673.488 567.462 673.152 567 673.152C566.524 673.152 566.104 673.488 566.104 674.048C566.104 674.622 566.524 674.944 567 674.944ZM576.814 667.566V668.14H585.242V667.566H576.814ZM582.764 666.18C583.352 666.446 584.052 666.866 584.402 667.216L584.752 666.796C584.388 666.46 583.702 666.054 583.114 665.802L582.764 666.18ZM583.912 668.938C583.268 671.514 581.924 673.432 579.936 674.608C580.062 674.72 580.286 674.958 580.37 675.07C582.372 673.782 583.786 671.808 584.5 669.05L583.912 668.938ZM576.674 673.502L576.814 674.076C578.004 673.824 579.572 673.474 581.084 673.138L581.056 672.62C579.418 672.97 577.794 673.292 576.674 673.502ZM577.934 669.694H579.936V671.43H577.934V669.694ZM577.388 669.19V671.934H580.496V669.19H577.388ZM581.182 665.886C581.476 670.394 582.134 674.524 584.164 674.846C584.794 675.028 585.13 674.454 585.312 673.04C585.158 672.984 584.948 672.858 584.822 672.732C584.71 673.712 584.556 674.328 584.332 674.272C582.722 674.062 582.008 670.128 581.784 665.886H581.182ZM575.232 664.822V676.918H575.89V665.452H586.082V676.918H586.768V664.822H575.232ZM575.624 675.588V676.218H586.474V675.588H575.624ZM589.176 664.724V676.834H589.806V665.354H592.452V664.724H589.176ZM592.256 664.724V664.892C591.906 665.886 591.36 667.384 590.786 668.672C591.906 669.876 592.2 670.87 592.2 671.696C592.2 672.13 592.116 672.578 591.878 672.746C591.752 672.83 591.598 672.872 591.416 672.886C591.15 672.914 590.842 672.9 590.478 672.872C590.59 673.054 590.66 673.32 590.674 673.474C590.982 673.502 591.346 673.502 591.64 673.474C591.906 673.432 592.13 673.376 592.312 673.236C592.662 672.984 592.816 672.396 592.816 671.724C592.816 670.828 592.55 669.792 591.444 668.588C591.948 667.454 592.494 666.096 592.914 664.962L592.494 664.696L592.382 664.724H592.256ZM594.916 669.862V670.464H599.41V669.862H594.916ZM593.502 671.976V672.578H600.838V671.976H593.502ZM594.426 665.256V665.816H596.764V665.256H594.426ZM593.838 666.544C594.482 667.02 595.252 667.706 595.616 668.154L595.994 667.748C595.616 667.314 594.846 666.656 594.202 666.194L593.838 666.544ZM598.808 673.656C599.55 674.44 600.46 675.518 600.922 676.148L601.44 675.784C600.978 675.168 600.054 674.104 599.312 673.334L598.808 673.656ZM596.568 665.256V665.396C595.994 667.818 594.51 669.778 592.97 670.702C593.11 670.814 593.292 671.024 593.376 671.164C595 670.114 596.54 668.126 597.17 665.382L596.778 665.228L596.666 665.256H596.568ZM597.73 664.92V665.466H600.726V664.92H597.73ZM594.72 664.136C594.258 665.522 593.46 666.824 592.466 667.692C592.62 667.762 592.886 667.944 592.998 668.042C593.936 667.132 594.79 665.76 595.322 664.276L594.72 664.136ZM600.488 664.92V665.046C600.124 666.04 599.396 667.328 598.64 668.084C598.78 668.182 598.948 668.35 599.06 668.476C599.872 667.65 600.684 666.348 601.16 665.116L600.754 664.878L600.628 664.92H600.488ZM594.832 673.39C594.328 674.23 593.572 675.182 592.9 675.84C593.054 675.924 593.32 676.12 593.446 676.232C594.09 675.532 594.888 674.496 595.462 673.614L594.832 673.39ZM597.912 665.494L597.366 665.662C598.08 667.944 599.424 670.142 600.964 671.248C601.062 671.08 601.258 670.856 601.398 670.744C599.9 669.792 598.57 667.678 597.912 665.494ZM596.848 672.242V676.862H597.506V672.242H596.848ZM592.662 668.546L592.76 669.106C593.446 669.008 594.146 668.896 594.93 668.77L594.916 668.28C594.034 668.406 593.292 668.476 592.662 668.546ZM604.884 669.246V669.904H613.326V669.246H604.884ZM604.884 672.326V672.97H613.326V672.326H604.884ZM604.884 675.406V676.064H613.326V675.406H604.884ZM604.436 666.124V676.904H605.108V666.768H613.102V676.806H613.788V666.124H604.436ZM608.594 664.122C608.426 664.78 608.09 665.774 607.81 666.404L608.398 666.53C608.72 665.942 609.042 665.032 609.336 664.248L608.594 664.122ZM622.902 667.258V667.916H629.202V667.258H622.902ZM618.786 666.838C619.668 667.524 620.676 668.518 621.18 669.162L621.572 668.728C621.082 668.098 620.032 667.132 619.164 666.46L618.786 666.838ZM626.696 664.864C627.312 665.438 627.998 666.264 628.306 666.782L628.838 666.418C628.516 665.9 627.802 665.102 627.186 664.542L626.696 664.864ZM619.696 664.052C619.164 665.676 618.072 667.608 616.714 668.812C616.826 668.938 617.022 669.176 617.092 669.316C618.548 668.014 619.696 666.026 620.34 664.234L619.696 664.052ZM622.314 665.452V665.606C621.558 669.302 619.43 671.584 616.854 672.732C617.008 672.844 617.246 673.096 617.316 673.25C619.948 672.018 622.132 669.624 622.986 665.606L622.608 665.424L622.468 665.452H622.314ZM619.556 665.452L619.234 666.054H622.58V665.452H619.556ZM625.478 664.304V665.662C625.478 667.664 625.156 670.716 621.698 672.984C621.866 673.096 622.104 673.292 622.202 673.418C625.758 671.052 626.136 667.902 626.136 665.648V664.304H625.478ZM620.97 674.23C621.152 675.042 621.264 676.106 621.264 676.75L621.936 676.652C621.922 676.05 621.768 675 621.586 674.188L620.97 674.23ZM623.882 674.202C624.274 675.014 624.638 676.092 624.792 676.75L625.45 676.596C625.296 675.952 624.89 674.874 624.498 674.09L623.882 674.202ZM626.794 674.118C627.536 674.972 628.362 676.148 628.726 676.89L629.356 676.596C628.964 675.854 628.124 674.692 627.382 673.866L626.794 674.118ZM618.576 673.95C618.1 674.874 617.344 675.938 616.658 676.596L617.274 676.862C617.96 676.148 618.674 675.042 619.178 674.104L618.576 673.95ZM616.854 670.086L617.078 670.646C617.918 670.408 618.884 670.128 619.892 669.848L619.822 669.372C618.702 669.652 617.638 669.918 616.854 670.086ZM625.464 667.93C626.752 669.624 628.166 671.948 628.754 673.348L629.37 673.026C628.768 671.626 627.326 669.344 626.024 667.65L625.464 667.93ZM638.484 668.868V676.876H639.17V668.868H638.484ZM634.172 671.01V671.654H643.342V671.01H634.172ZM635.922 665.466H641.788V668.448H635.922V665.466ZM635.278 664.836V669.078H642.46V664.836H635.278ZM634.046 664.192C633.192 666.39 631.806 668.532 630.35 669.918C630.476 670.072 630.686 670.394 630.77 670.548C632.296 669.008 633.752 666.74 634.69 664.388L634.046 664.192ZM632.506 667.65V676.834H633.178V667.02L633.15 667.006L632.506 667.65ZM636.664 672.466C636.006 673.6 635.054 674.86 634.2 675.742C634.368 675.826 634.634 676.05 634.746 676.134C635.572 675.224 636.552 673.866 637.294 672.676L636.664 672.466ZM640.15 672.76C641.116 673.782 642.222 675.21 642.754 676.106L643.314 675.742C642.782 674.874 641.648 673.488 640.668 672.466L640.15 672.76ZM645.19 668.364V668.938H648.956V668.364H645.19ZM645.19 670.17V670.744H648.956V670.17H645.19ZM644.644 666.558V667.16H649.432V666.558H644.644ZM645.498 671.99V672.606H648.34V675.378H645.498V675.98H648.97V671.99H645.498ZM645.218 671.99V676.68H645.834V671.99H645.218ZM646.254 664.388C646.646 664.948 647.122 665.718 647.332 666.208L647.892 665.858C647.654 665.382 647.206 664.654 646.772 664.094L646.254 664.388ZM649.684 672.928V673.474H655.998V672.928H649.684ZM655.844 672.928V673.04C654.738 674.888 651.882 675.938 649.264 676.316C649.376 676.456 649.53 676.722 649.586 676.89C652.33 676.4 655.284 675.308 656.516 673.138L656.11 672.886L655.97 672.928H655.844ZM651.462 673.404L650.888 673.642C652.148 675.266 654.654 676.4 657.132 676.876C657.216 676.722 657.398 676.47 657.552 676.33C655.074 675.924 652.624 674.888 651.462 673.404ZM649.558 665.116V665.704H652.428V665.116H649.558ZM650.916 669.008V669.498H656.614V669.008H650.916ZM650.916 670.338V670.828H656.614V670.338H650.916ZM652.036 664.15V666.53H652.68V664.15H652.036ZM653.422 667.846V671.934H654.038V667.846H653.422ZM654.346 664.15V666.53H654.962V664.15H654.346ZM651.182 666.292C650.776 667.496 650.076 668.616 649.264 669.372C649.404 669.498 649.628 669.75 649.712 669.876C650.552 669.036 651.322 667.762 651.77 666.46L651.182 666.292ZM654.612 665.13V665.718H657.286V665.13H654.612ZM651.196 667.622H650.986L650.594 668.028V672.592H651.196V668.154H656.992V667.622H651.196ZM653.1 666.544C653.296 667.02 653.52 667.65 653.604 668.042L654.248 667.818C654.136 667.44 653.912 666.838 653.688 666.376L653.1 666.544ZM650.888 671.724V672.242H657.314V671.724H650.888ZM658.7 664.794V665.424H663.292V664.794H658.7ZM659.904 667.706V668.308H662.354V667.706H659.904ZM659.904 670.618V671.234H662.354V670.618H659.904ZM659.512 665.088V674.146H660.114V665.088H659.512ZM662.032 665.088V676.876H662.662V665.088H662.032ZM658.602 674.09L658.742 674.734C659.778 674.552 661.094 674.328 662.424 674.09L662.396 673.502C660.968 673.74 659.582 673.95 658.602 674.09ZM665.91 668.56C666.19 669.316 666.498 670.324 666.652 670.898L667.156 670.702C667.016 670.17 666.694 669.176 666.4 668.448L665.91 668.56ZM663.432 667.86C663.432 667.678 663.908 667.482 663.908 667.482V667.454C664.538 666.74 665.182 665.662 665.714 664.556L665.14 664.304C664.748 665.34 664.006 666.432 663.81 666.712C663.6 666.992 663.432 667.174 663.25 667.202C663.32 667.37 663.418 667.72 663.432 667.86ZM663.432 667.86C663.614 667.776 663.922 667.734 665.63 667.622C665.672 667.496 665.756 667.258 665.84 667.09L663.81 667.188L663.432 667.384V667.86ZM663.306 670.59C663.306 670.408 663.768 670.212 663.768 670.212V670.198C664.776 669.176 665.812 667.692 666.694 666.194L666.162 665.9C665.42 667.342 664.258 668.854 663.936 669.218C663.614 669.61 663.334 669.89 663.11 669.918C663.194 670.1 663.292 670.436 663.306 670.59ZM663.306 670.59C663.502 670.492 663.894 670.422 666.75 670.072C666.722 669.946 666.652 669.722 666.638 669.568L663.67 669.862L663.306 670.1V670.59ZM669.998 668.378C670.348 669.162 670.754 670.198 670.922 670.8L671.426 670.59C671.244 670.016 670.824 669.008 670.46 668.238L669.998 668.378ZM667.436 667.804C667.436 667.622 667.912 667.412 667.912 667.412V667.398C668.5 666.698 669.116 665.634 669.606 664.556L669.06 664.318C668.682 665.326 667.996 666.404 667.786 666.67C667.604 666.95 667.422 667.118 667.24 667.146C667.338 667.314 667.408 667.664 667.436 667.804ZM667.436 667.804C667.604 667.734 667.898 667.678 669.494 667.566C669.536 667.44 669.62 667.202 669.718 667.048L667.8 667.118L667.436 667.314V667.804ZM667.478 670.478C667.478 670.296 667.982 670.086 667.982 670.086V670.072C668.892 669.092 669.802 667.65 670.572 666.208L670.026 665.914C669.396 667.3 668.346 668.77 668.038 669.134C667.758 669.526 667.506 669.792 667.282 669.82C667.38 669.988 667.45 670.324 667.478 670.478ZM667.478 670.478C667.702 670.38 668.08 670.296 670.922 669.96C670.894 669.848 670.866 669.624 670.852 669.456L667.856 669.764L667.478 669.974V670.478ZM666.106 671.024V673.222C666.106 674.37 665.812 675.63 663.95 676.526C664.09 676.624 664.286 676.848 664.384 677.002C666.33 676.036 666.722 674.524 666.722 673.236V671.024H666.106ZM664.16 673.32V673.936H666.414V673.32H664.16ZM667.884 670.996V676.918H668.5V670.996H667.884ZM663.992 671.024V673.936H664.594V671.024H663.992ZM669.984 671.15V674.482H670.586V671.15H669.984ZM668.248 673.292V673.922H670.264V673.292H668.248ZM679.644 664.584V665.186H683.97V664.584H679.644ZM679.658 666.684V667.244H683.984V666.684H679.658ZM679.532 668.784V669.344H683.984V668.784H679.532ZM679.308 664.584V667.538C679.308 668.798 679.112 670.338 677.67 671.43C677.81 671.528 678.048 671.766 678.132 671.906C679.686 670.702 679.952 668.952 679.952 667.538V664.584H679.308ZM683.774 664.584V670.856C683.774 671.052 683.718 671.094 683.508 671.108C683.298 671.122 682.626 671.136 681.786 671.108C681.884 671.29 682.01 671.542 682.052 671.724C683.018 671.724 683.662 671.724 684.012 671.612C684.348 671.5 684.432 671.29 684.432 670.856V664.584H683.774ZM673.778 667.188V667.776H677.39V667.188H673.778ZM673.47 664.808V670.954H674.1V664.808H673.47ZM673.792 664.808V665.396H677.124V669.568H673.792V670.156H677.768V664.808H673.792ZM672.672 675.854V676.47H685.272V675.854H672.672ZM674.296 672.256V676.19H674.94V672.858H677.194V676.19H677.838V672.858H680.12V676.19H680.764V672.858H683.046V676.19H683.704V672.256H674.296ZM692.478 678.542L692.968 678.276C691.75 676.33 691.134 673.95 691.134 671.528C691.134 669.092 691.75 666.726 692.968 664.766L692.478 664.5C691.204 666.558 690.434 668.798 690.434 671.528C690.434 674.258 691.204 676.484 692.478 678.542ZM694.99 675.826H695.816V665.62H694.99V675.826ZM702.248 676.022C704.068 676.022 705.748 675.056 705.748 671.85V665.62H704.936V671.794C704.936 674.454 703.676 675.266 702.248 675.266C700.82 675.266 699.602 674.454 699.602 671.794V665.62H698.762V671.85C698.762 675.056 700.414 676.022 702.248 676.022ZM712.343 676.022C713.659 676.022 714.597 675.476 715.395 674.566L714.905 674.02C714.177 674.832 713.407 675.266 712.385 675.266C710.243 675.266 708.899 673.474 708.899 670.702C708.899 667.93 710.257 666.194 712.427 666.194C713.351 666.194 714.079 666.614 714.625 667.216L715.101 666.67C714.555 666.04 713.631 665.438 712.427 665.438C709.837 665.438 708.031 667.468 708.031 670.716C708.031 673.978 709.809 676.022 712.343 676.022ZM717.453 675.826H718.237V669.722C718.237 668.7 718.181 667.748 718.139 666.754H718.195L719.343 668.812L723.501 675.826H724.383V665.62H723.571V671.668C723.571 672.676 723.641 673.698 723.697 674.692H723.627L722.493 672.648L718.321 665.62H717.453V675.826ZM726.889 678.542C728.163 676.484 728.933 674.258 728.933 671.528C728.933 668.798 728.163 666.558 726.889 664.5L726.371 664.766C727.603 666.726 728.219 669.092 728.219 671.528C728.219 673.95 727.603 676.33 726.371 678.276L726.889 678.542ZM737.937 669.442C738.343 670.352 738.749 671.542 738.903 672.256L739.519 672.06C739.379 671.36 738.945 670.198 738.539 669.302L737.937 669.442ZM736.481 673.068C736.663 674.006 736.859 675.224 736.901 676.022L737.503 675.882C737.461 675.084 737.265 673.88 737.055 672.942L736.481 673.068ZM734.955 673.012C734.731 674.146 734.409 675.406 734.003 676.288C734.185 676.344 734.479 676.456 734.619 676.526C734.969 675.644 735.347 674.328 735.585 673.152L734.955 673.012ZM734.269 669.204C734.269 669.036 734.787 668.812 734.787 668.812V668.784C735.879 667.664 736.985 666.054 737.937 664.43L737.265 664.136C736.481 665.69 735.263 667.328 734.899 667.734C734.549 668.168 734.269 668.462 734.031 668.504C734.115 668.7 734.227 669.05 734.269 669.204ZM734.269 669.204C734.479 669.106 734.829 669.036 737.363 668.728C737.349 668.602 737.363 668.35 737.391 668.168L734.647 668.42L734.255 668.672L734.269 669.204ZM734.339 672.312C734.339 672.13 734.885 671.92 734.885 671.92V671.906C736.313 670.562 737.783 668.658 739.057 666.698L738.427 666.348C737.321 668.238 735.711 670.184 735.193 670.688C734.731 671.206 734.381 671.57 734.101 671.612C734.185 671.808 734.297 672.144 734.339 672.312ZM734.339 672.312C734.591 672.172 735.039 672.088 738.903 671.472C738.889 671.346 738.875 671.08 738.889 670.912L734.745 671.486L734.325 671.752L734.339 672.312ZM737.993 672.802C738.273 673.516 738.609 674.468 738.735 675.07L739.323 674.86C739.183 674.272 738.861 673.334 738.553 672.62L737.993 672.802ZM739.771 665.256V665.928H746.533V665.256H739.771ZM739.141 675.28V675.952H746.743V675.28H739.141ZM742.753 665.634V675.672H743.453V665.634H742.753ZM752.119 669.946L751.503 670.142C753.015 673.754 756.025 676.022 760.309 676.876C760.407 676.708 760.589 676.428 760.729 676.274C756.487 675.518 753.505 673.32 752.119 669.946ZM749.921 666.166V666.81H759.623V666.166H749.921ZM750.075 669.694V670.338H758.643V669.694H750.075ZM754.401 664.136V669.946H755.087V664.136H754.401ZM749.585 666.166V669.624C749.585 671.654 749.403 674.384 747.863 676.372C748.017 676.456 748.283 676.68 748.395 676.806C750.019 674.734 750.257 671.752 750.257 669.638V666.166H749.585ZM759.427 666.166V666.306C759.105 667.174 758.629 668.238 758.251 668.882L758.853 669.092C759.273 668.406 759.763 667.272 760.183 666.292L759.693 666.124L759.553 666.166H759.427ZM758.475 669.694V669.834C757.173 673.572 753.701 675.434 749.809 676.26C749.949 676.4 750.145 676.694 750.215 676.862C754.177 675.952 757.733 673.992 759.203 669.904L758.769 669.652L758.629 669.694H758.475ZM764.019 672.662V676.904H764.677V673.208H772.153V676.876H772.839V672.662H764.019ZM764.341 674.244V674.776H772.447V674.244H764.341ZM764.341 675.882V676.414H772.447V675.882H764.341ZM767.981 664.136V671.626H768.667V664.136H767.981ZM763.725 665.186V665.718H772.097V668.28H763.557V668.812H772.769V665.186H763.725ZM762.213 666.712V667.272H774.533V666.712H762.213ZM763.137 669.764V670.296H773.651V669.764H763.137ZM762.199 671.304V671.878H774.561V671.304H762.199Z" fill="#404040"/>
</svg>
